<?xml version="1.0" encoding="UTF-8" standalone="no"?>
<!DOCTYPE svg PUBLIC "-//W3C//DTD SVG 1.1//EN"
 "http://www.w3.org/Graphics/SVG/1.1/DTD/svg11.dtd">
<!-- Generated by graphviz version 2.36.0 (20140111.2315)
 -->
<!-- Title: cnf Pages: 1 -->
<svg width="581pt" height="548pt"
 viewBox="0.00 0.00 581.00 548.00" xmlns="http://www.w3.org/2000/svg" xmlns:xlink="http://www.w3.org/1999/xlink">
<g id="graph0" class="graph" transform="scale(1 1) rotate(0) translate(4 544)">
<title>cnf</title>
<polygon fill="white" stroke="none" points="-4,4 -4,-544 577,-544 577,4 -4,4"/>
<!-- E -->
<g id="node1" class="node"><title>E</title>
<ellipse fill="none" stroke="black" cx="324" cy="-522" rx="27" ry="18"/>
<text text-anchor="middle" x="324" y="-518.3" font-family="Times,serif" font-size="14.00">E</text>
</g>
<!-- num -->
<g id="node2" class="node"><title>num</title>
<ellipse fill="none" stroke="black" cx="135" cy="-90" rx="27" ry="18"/>
<text text-anchor="middle" x="135" y="-86.3" font-family="Times,serif" font-size="14.00">num</text>
</g>
<!-- E&#45;&gt;num -->
<g id="edge1" class="edge"><title>E&#45;&gt;num</title>
<path fill="none" stroke="black" d="M300.404,-512.824C278.694,-504.351 246.672,-489.337 225,-468 172.829,-416.635 174.059,-391.199 145,-324 112.942,-249.867 108.897,-224.001 120,-144 121.215,-135.246 123.508,-125.905 125.942,-117.541"/>
<polygon fill="black" stroke="black" points="129.303,-118.518 128.918,-107.93 122.616,-116.447 129.303,-118.518"/>
</g>
<!-- digit -->
<g id="node3" class="node"><title>digit</title>
<ellipse fill="none" stroke="black" cx="135" cy="-18" rx="26.949" ry="18"/>
<text text-anchor="middle" x="135" y="-14.3" font-family="Times,serif" font-size="14.00">digit</text>
</g>
<!-- E&#45;&gt;digit -->
<g id="edge2" class="edge"><title>E&#45;&gt;digit</title>
<path fill="none" stroke="black" d="M296.933,-521.389C219.063,-520.964 0,-508.279 0,-379 0,-379 0,-379 0,-161 0,-100.694 64.7453,-55.8129 104.56,-33.9146"/>
<polygon fill="black" stroke="black" points="106.428,-36.8852 113.609,-29.0949 103.137,-30.7069 106.428,-36.8852"/>
</g>
<!-- var -->
<g id="node4" class="node"><title>var</title>
<ellipse fill="none" stroke="black" cx="475" cy="-90" rx="27" ry="18"/>
<text text-anchor="middle" x="475" y="-86.3" font-family="Times,serif" font-size="14.00">var</text>
</g>
<!-- E&#45;&gt;var -->
<g id="edge3" class="edge"><title>E&#45;&gt;var</title>
<path fill="none" stroke="black" d="M349.873,-516.265C406.216,-504.305 535,-467.31 535,-379 535,-379 535,-379 535,-233 535,-188.757 509.98,-142.441 492.254,-115.178"/>
<polygon fill="black" stroke="black" points="495.043,-113.052 486.569,-106.693 489.228,-116.949 495.043,-113.052"/>
</g>
<!-- letter -->
<g id="node5" class="node"><title>letter</title>
<ellipse fill="none" stroke="black" cx="420" cy="-18" rx="29.3722" ry="18"/>
<text text-anchor="middle" x="420" y="-14.3" font-family="Times,serif" font-size="14.00">letter</text>
</g>
<!-- E&#45;&gt;letter -->
<g id="edge4" class="edge"><title>E&#45;&gt;letter</title>
<path fill="none" stroke="black" d="M350.647,-518.37C414.883,-510.414 573,-480.52 573,-379 573,-379 573,-379 573,-161 573,-116.874 560.304,-103.099 529,-72 508.624,-51.757 478.987,-38.033 455.759,-29.6314"/>
<polygon fill="black" stroke="black" points="456.837,-26.3009 446.242,-26.3531 454.557,-32.9192 456.837,-26.3009"/>
</g>
<!-- term -->
<g id="node6" class="node"><title>term</title>
<ellipse fill="none" stroke="black" cx="344" cy="-306" rx="26.949" ry="18"/>
<text text-anchor="middle" x="344" y="-302.3" font-family="Times,serif" font-size="14.00">term</text>
</g>
<!-- E&#45;&gt;term -->
<g id="edge5" class="edge"><title>E&#45;&gt;term</title>
<path fill="none" stroke="black" d="M330.375,-504.087C333.926,-493.812 338.021,-480.337 340,-468 347.445,-421.572 346.835,-366.664 345.54,-334.454"/>
<polygon fill="black" stroke="black" points="349.018,-333.888 345.065,-324.058 342.025,-334.207 349.018,-333.888"/>
</g>
<!-- mulfac -->
<g id="node7" class="node"><title>mulfac</title>
<ellipse fill="none" stroke="black" cx="178" cy="-234" rx="35.6194" ry="18"/>
<text text-anchor="middle" x="178" y="-230.3" font-family="Times,serif" font-size="14.00">mulfac</text>
</g>
<!-- E&#45;&gt;mulfac -->
<g id="edge6" class="edge"><title>E&#45;&gt;mulfac</title>
<path fill="none" stroke="black" d="M302.677,-510.524C286.142,-501.395 263.789,-486.694 250,-468 202.885,-404.123 186.164,-308.85 180.587,-262.419"/>
<polygon fill="black" stroke="black" points="184.039,-261.785 179.451,-252.235 177.082,-262.561 184.039,-261.785"/>
</g>
<!-- expr -->
<g id="node8" class="node"><title>expr</title>
<ellipse fill="none" stroke="black" cx="286" cy="-450" rx="27" ry="18"/>
<text text-anchor="middle" x="286" y="-446.3" font-family="Times,serif" font-size="14.00">expr</text>
</g>
<!-- E&#45;&gt;expr -->
<g id="edge7" class="edge"><title>E&#45;&gt;expr</title>
<path fill="none" stroke="black" d="M315.187,-504.765C310.582,-496.283 304.845,-485.714 299.679,-476.197"/>
<polygon fill="black" stroke="black" points="302.613,-474.266 294.766,-467.147 296.461,-477.606 302.613,-474.266"/>
</g>
<!-- addterm -->
<g id="node9" class="node"><title>addterm</title>
<ellipse fill="none" stroke="black" cx="467" cy="-378" rx="39.9464" ry="18"/>
<text text-anchor="middle" x="467" y="-374.3" font-family="Times,serif" font-size="14.00">addterm</text>
</g>
<!-- E&#45;&gt;addterm -->
<g id="edge8" class="edge"><title>E&#45;&gt;addterm</title>
<path fill="none" stroke="black" d="M338.499,-506.603C363.267,-482.007 413.933,-431.696 443.712,-402.126"/>
<polygon fill="black" stroke="black" points="446.531,-404.258 451.161,-394.728 441.599,-399.291 446.531,-404.258"/>
</g>
<!-- num&#45;&gt;num -->
<g id="edge33" class="edge"><title>num&#45;&gt;num</title>
<path fill="none" stroke="black" d="M154.895,-102.432C167.688,-105.675 180,-101.531 180,-90 180,-81.6218 173.501,-77.1433 165.039,-76.5644"/>
<polygon fill="black" stroke="black" points="164.502,-73.1004 154.895,-77.5679 165.191,-80.0665 164.502,-73.1004"/>
</g>
<!-- num&#45;&gt;digit -->
<g id="edge34" class="edge"><title>num&#45;&gt;digit</title>
<path fill="none" stroke="black" d="M135,-71.6966C135,-63.9827 135,-54.7125 135,-46.1124"/>
<polygon fill="black" stroke="black" points="138.5,-46.1043 135,-36.1043 131.5,-46.1044 138.5,-46.1043"/>
</g>
<!-- var&#45;&gt;var -->
<g id="edge31" class="edge"><title>var&#45;&gt;var</title>
<path fill="none" stroke="black" d="M494.895,-102.432C507.688,-105.675 520,-101.531 520,-90 520,-81.6218 513.501,-77.1433 505.039,-76.5644"/>
<polygon fill="black" stroke="black" points="504.502,-73.1004 494.895,-77.5679 505.191,-80.0665 504.502,-73.1004"/>
</g>
<!-- var&#45;&gt;letter -->
<g id="edge32" class="edge"><title>var&#45;&gt;letter</title>
<path fill="none" stroke="black" d="M463.066,-73.811C455.886,-64.6733 446.596,-52.8493 438.483,-42.5237"/>
<polygon fill="black" stroke="black" points="441.222,-40.3448 432.292,-34.644 435.718,-44.6696 441.222,-40.3448"/>
</g>
<!-- term&#45;&gt;num -->
<g id="edge19" class="edge"><title>term&#45;&gt;num</title>
<path fill="none" stroke="black" d="M332.334,-289.405C309.591,-259.504 256.985,-192.754 205,-144 191.592,-131.426 175.284,-118.938 161.783,-109.245"/>
<polygon fill="black" stroke="black" points="163.562,-106.217 153.375,-103.306 159.524,-111.934 163.562,-106.217"/>
</g>
<!-- term&#45;&gt;digit -->
<g id="edge20" class="edge"><title>term&#45;&gt;digit</title>
<path fill="none" stroke="black" d="M346.14,-287.593C349.09,-256.421 351.293,-190.033 324,-144 288.654,-84.3838 212.446,-47.6216 168.358,-30.4921"/>
<polygon fill="black" stroke="black" points="169.53,-27.1933 158.938,-26.9411 167.061,-33.7434 169.53,-27.1933"/>
</g>
<!-- term&#45;&gt;var -->
<g id="edge21" class="edge"><title>term&#45;&gt;var</title>
<path fill="none" stroke="black" d="M367.895,-296.94C388.449,-288.785 417.343,-274.187 434,-252 463.924,-212.141 472.131,-152.737 474.305,-118.334"/>
<polygon fill="black" stroke="black" points="477.813,-118.262 474.819,-108.099 470.822,-117.911 477.813,-118.262"/>
</g>
<!-- term&#45;&gt;letter -->
<g id="edge22" class="edge"><title>term&#45;&gt;letter</title>
<path fill="none" stroke="black" d="M352.42,-288.485C364.033,-264.996 384.796,-220.31 396,-180 408.783,-134.01 415.145,-78.6205 417.995,-46.2554"/>
<polygon fill="black" stroke="black" points="421.49,-46.4648 418.831,-36.2089 414.514,-45.8842 421.49,-46.4648"/>
</g>
<!-- term&#45;&gt;term -->
<g id="edge23" class="edge"><title>term&#45;&gt;term</title>
<path fill="none" stroke="black" d="M363.895,-318.432C376.688,-321.675 389,-317.531 389,-306 389,-297.622 382.501,-293.143 374.039,-292.564"/>
<polygon fill="black" stroke="black" points="373.502,-289.1 363.895,-293.568 374.191,-296.066 373.502,-289.1"/>
</g>
<!-- term&#45;&gt;mulfac -->
<g id="edge24" class="edge"><title>term&#45;&gt;mulfac</title>
<path fill="none" stroke="black" d="M321.613,-295.559C293.904,-283.875 246.381,-263.835 213.637,-250.028"/>
<polygon fill="black" stroke="black" points="214.981,-246.796 204.406,-246.135 212.261,-253.246 214.981,-246.796"/>
</g>
<!-- mul -->
<g id="node11" class="node"><title>mul</title>
<ellipse fill="none" stroke="black" cx="169" cy="-162" rx="27" ry="18"/>
<text text-anchor="middle" x="169" y="-158.3" font-family="Times,serif" font-size="14.00">mul</text>
</g>
<!-- mulfac&#45;&gt;mul -->
<g id="edge25" class="edge"><title>mulfac&#45;&gt;mul</title>
<path fill="none" stroke="black" d="M175.775,-215.697C174.783,-207.983 173.592,-198.712 172.486,-190.112"/>
<polygon fill="black" stroke="black" points="175.946,-189.576 171.199,-180.104 169.003,-190.469 175.946,-189.576"/>
</g>
<!-- factor -->
<g id="node12" class="node"><title>factor</title>
<ellipse fill="none" stroke="black" cx="284" cy="-162" rx="31.2735" ry="18"/>
<text text-anchor="middle" x="284" y="-158.3" font-family="Times,serif" font-size="14.00">factor</text>
</g>
<!-- mulfac&#45;&gt;factor -->
<g id="edge26" class="edge"><title>mulfac&#45;&gt;factor</title>
<path fill="none" stroke="black" d="M198.69,-219.337C214.948,-208.601 237.765,-193.533 255.712,-181.681"/>
<polygon fill="black" stroke="black" points="257.665,-184.586 264.081,-176.154 253.807,-178.744 257.665,-184.586"/>
</g>
<!-- expr&#45;&gt;num -->
<g id="edge9" class="edge"><title>expr&#45;&gt;num</title>
<path fill="none" stroke="black" d="M269.834,-435.579C236.175,-406.417 159.499,-333.318 133,-252 118.293,-206.869 123.976,-150.774 129.471,-118.116"/>
<polygon fill="black" stroke="black" points="132.967,-118.452 131.297,-107.989 126.078,-117.209 132.967,-118.452"/>
</g>
<!-- expr&#45;&gt;digit -->
<g id="edge10" class="edge"><title>expr&#45;&gt;digit</title>
<path fill="none" stroke="black" d="M263.442,-439.758C243.335,-430.731 213.932,-415.516 193,-396 164.87,-369.774 161.68,-358.654 145,-324 102.431,-235.559 106.765,-205.845 99,-108 97.7342,-92.0501 94.2972,-87.2933 99,-72 102.286,-61.3149 108.54,-50.851 114.925,-42.0814"/>
<polygon fill="black" stroke="black" points="117.884,-43.9774 121.25,-33.9312 112.354,-39.6861 117.884,-43.9774"/>
</g>
<!-- expr&#45;&gt;var -->
<g id="edge11" class="edge"><title>expr&#45;&gt;var</title>
<path fill="none" stroke="black" d="M301.749,-435.339C335.285,-405.433 414.252,-330.535 458,-252 481.929,-209.044 485.226,-193.065 482,-144 481.443,-135.535 480.392,-126.358 479.27,-118.056"/>
<polygon fill="black" stroke="black" points="482.73,-117.529 477.843,-108.129 475.801,-118.525 482.73,-117.529"/>
</g>
<!-- expr&#45;&gt;letter -->
<g id="edge12" class="edge"><title>expr&#45;&gt;letter</title>
<path fill="none" stroke="black" d="M286.89,-431.79C288.751,-402.019 294.101,-339.183 308,-288 333.249,-195.022 382.919,-91.503 406.698,-44.5881"/>
<polygon fill="black" stroke="black" points="409.929,-45.9578 411.362,-35.4603 403.695,-42.7731 409.929,-45.9578"/>
</g>
<!-- expr&#45;&gt;term -->
<g id="edge13" class="edge"><title>expr&#45;&gt;term</title>
<path fill="none" stroke="black" d="M292.767,-432.433C302.764,-407.957 321.571,-361.912 333.407,-332.936"/>
<polygon fill="black" stroke="black" points="336.735,-334.043 337.276,-323.462 330.255,-331.396 336.735,-334.043"/>
</g>
<!-- expr&#45;&gt;mulfac -->
<g id="edge14" class="edge"><title>expr&#45;&gt;mulfac</title>
<path fill="none" stroke="black" d="M277.705,-432.563C259.022,-395.543 213.528,-305.397 191.033,-260.825"/>
<polygon fill="black" stroke="black" points="194.103,-259.139 186.472,-251.788 187.853,-262.293 194.103,-259.139"/>
</g>
<!-- expr&#45;&gt;expr -->
<g id="edge15" class="edge"><title>expr&#45;&gt;expr</title>
<path fill="none" stroke="black" d="M305.895,-462.432C318.688,-465.675 331,-461.531 331,-450 331,-441.622 324.501,-437.143 316.039,-436.564"/>
<polygon fill="black" stroke="black" points="315.502,-433.1 305.895,-437.568 316.191,-440.066 315.502,-433.1"/>
</g>
<!-- expr&#45;&gt;addterm -->
<g id="edge16" class="edge"><title>expr&#45;&gt;addterm</title>
<path fill="none" stroke="black" d="M308.924,-440.134C338.835,-428.567 391.628,-408.15 427.916,-394.116"/>
<polygon fill="black" stroke="black" points="429.616,-397.211 437.68,-390.339 427.091,-390.682 429.616,-397.211"/>
</g>
<!-- addterm&#45;&gt;term -->
<g id="edge17" class="edge"><title>addterm&#45;&gt;term</title>
<path fill="none" stroke="black" d="M442.992,-363.337C422.895,-351.9 394.16,-335.547 372.822,-323.403"/>
<polygon fill="black" stroke="black" points="374.309,-320.222 363.887,-318.318 370.847,-326.306 374.309,-320.222"/>
</g>
<!-- add -->
<g id="node10" class="node"><title>add</title>
<ellipse fill="none" stroke="black" cx="472" cy="-306" rx="27" ry="18"/>
<text text-anchor="middle" x="472" y="-302.3" font-family="Times,serif" font-size="14.00">add</text>
</g>
<!-- addterm&#45;&gt;add -->
<g id="edge18" class="edge"><title>addterm&#45;&gt;add</title>
<path fill="none" stroke="black" d="M468.236,-359.697C468.787,-351.983 469.449,-342.712 470.063,-334.112"/>
<polygon fill="black" stroke="black" points="473.557,-334.328 470.778,-324.104 466.575,-333.83 473.557,-334.328"/>
</g>
<!-- factor&#45;&gt;num -->
<g id="edge27" class="edge"><title>factor&#45;&gt;num</title>
<path fill="none" stroke="black" d="M260.391,-149.908C234.846,-137.907 194.011,-118.723 165.922,-105.527"/>
<polygon fill="black" stroke="black" points="167.103,-102.215 156.564,-101.131 164.127,-108.551 167.103,-102.215"/>
</g>
<!-- factor&#45;&gt;digit -->
<g id="edge28" class="edge"><title>factor&#45;&gt;digit</title>
<path fill="none" stroke="black" d="M268.336,-146.072C241.861,-120.841 188.169,-69.6715 157.613,-40.5502"/>
<polygon fill="black" stroke="black" points="159.665,-37.671 150.011,-33.3057 154.835,-42.7384 159.665,-37.671"/>
</g>
<!-- factor&#45;&gt;var -->
<g id="edge29" class="edge"><title>factor&#45;&gt;var</title>
<path fill="none" stroke="black" d="M309.759,-151.559C344.064,-138.987 404.766,-116.74 442.275,-102.993"/>
<polygon fill="black" stroke="black" points="443.554,-106.252 451.739,-99.5249 441.146,-99.6798 443.554,-106.252"/>
</g>
<!-- factor&#45;&gt;letter -->
<g id="edge30" class="edge"><title>factor&#45;&gt;letter</title>
<path fill="none" stroke="black" d="M298.18,-145.798C314.808,-128.011 343.25,-97.7198 368,-72 377.874,-61.7392 388.909,-50.4648 398.265,-40.9623"/>
<polygon fill="black" stroke="black" points="400.824,-43.3521 405.353,-33.7745 395.84,-38.4369 400.824,-43.3521"/>
</g>
</g>
</svg>
