<?xml version="1.0" encoding="UTF-8" standalone="no"?>
<!DOCTYPE svg PUBLIC "-//W3C//DTD SVG 1.1//EN"
 "http://www.w3.org/Graphics/SVG/1.1/DTD/svg11.dtd">
<!-- Generated by graphviz version 2.36.0 (20140111.2315)
 -->
<!-- Title: rgfsa Pages: 1 -->
<svg width="95pt" height="140pt"
 viewBox="0.00 0.00 95.00 140.00" xmlns="http://www.w3.org/2000/svg" xmlns:xlink="http://www.w3.org/1999/xlink">
<g id="graph0" class="graph" transform="scale(1 1) rotate(0) translate(4 136)">
<title>rgfsa</title>
<polygon fill="white" stroke="none" points="-4,4 -4,-136 91,-136 91,4 -4,4"/>
<!-- S_0 -->
<g id="node1" class="node"><title>S_0</title>
<ellipse fill="none" stroke="black" cx="31" cy="-114" rx="27" ry="18"/>
<text text-anchor="middle" x="31" y="-110.3" font-family="Times,serif" font-size="14.00">S_0</text>
</g>
<!-- S_f -->
<g id="node2" class="node"><title>S_f</title>
<ellipse fill="none" stroke="black" cx="31" cy="-22" rx="27" ry="18"/>
<ellipse fill="none" stroke="black" cx="31" cy="-22" rx="31" ry="22"/>
<text text-anchor="middle" x="31" y="-18.3" font-family="Times,serif" font-size="14.00">S_f</text>
</g>
<!-- S_0&#45;&gt;S_f -->
<g id="edge1" class="edge"><title>S_0&#45;&gt;S_f</title>
<path fill="none" stroke="black" d="M31,-95.6471C31,-83.9242 31,-68.1144 31,-54.2369"/>
<polygon fill="black" stroke="black" points="34.5001,-54.101 31,-44.101 27.5001,-54.101 34.5001,-54.101"/>
<text text-anchor="middle" x="34.5" y="-66.3" font-family="Times,serif" font-size="14.00">ε</text>
</g>
<!-- S_f&#45;&gt;S_f -->
<g id="edge2" class="edge"><title>S_f&#45;&gt;S_f</title>
<path fill="none" stroke="black" d="M59.6885,-30.9648C70.7806,-31.3633 80,-28.375 80,-22 80,-17.7168 75.8382,-14.9624 69.7429,-13.7368"/>
<polygon fill="black" stroke="black" points="69.9079,-10.2399 59.6885,-13.0352 69.4205,-17.223 69.9079,-10.2399"/>
<text text-anchor="middle" x="83.5" y="-18.3" font-family="Times,serif" font-size="14.00">ε</text>
</g>
</g>
</svg>
