<?xml version="1.0" encoding="UTF-8" standalone="no"?>
<!DOCTYPE svg PUBLIC "-//W3C//DTD SVG 1.1//EN"
 "http://www.w3.org/Graphics/SVG/1.1/DTD/svg11.dtd">
<!-- Generated by graphviz version 2.36.0 (20140111.2315)
 -->
<!-- Title: rgfsa Pages: 1 -->
<svg width="167pt" height="228pt"
 viewBox="0.00 0.00 167.00 228.00" xmlns="http://www.w3.org/2000/svg" xmlns:xlink="http://www.w3.org/1999/xlink">
<g id="graph0" class="graph" transform="scale(1 1) rotate(0) translate(4 224)">
<title>rgfsa</title>
<polygon fill="white" stroke="none" points="-4,4 -4,-224 163,-224 163,4 -4,4"/>
<!-- S_0 -->
<g id="node1" class="node"><title>S_0</title>
<ellipse fill="none" stroke="black" cx="57" cy="-202" rx="27" ry="18"/>
<text text-anchor="middle" x="57" y="-198.3" font-family="Times,serif" font-size="14.00">S_0</text>
</g>
<!-- S_1 -->
<g id="node2" class="node"><title>S_1</title>
<ellipse fill="none" stroke="black" cx="27" cy="-110" rx="27" ry="18"/>
<text text-anchor="middle" x="27" y="-106.3" font-family="Times,serif" font-size="14.00">S_1</text>
</g>
<!-- S_0&#45;&gt;S_1 -->
<g id="edge1" class="edge"><title>S_0&#45;&gt;S_1</title>
<path fill="none" stroke="black" d="M42.6879,-186.548C37.7574,-180.661 32.7801,-173.481 30,-166 26.7919,-157.367 25.573,-147.445 25.3008,-138.425"/>
<polygon fill="black" stroke="black" points="28.8008,-138.402 25.3535,-128.384 21.8009,-138.365 28.8008,-138.402"/>
<text text-anchor="middle" x="33.5" y="-154.3" font-family="Times,serif" font-size="14.00">a</text>
</g>
<!-- S_f -->
<g id="node4" class="node"><title>S_f</title>
<ellipse fill="none" stroke="black" cx="103" cy="-110" rx="27" ry="18"/>
<ellipse fill="none" stroke="black" cx="103" cy="-110" rx="31" ry="22"/>
<text text-anchor="middle" x="103" y="-106.3" font-family="Times,serif" font-size="14.00">S_f</text>
</g>
<!-- S_0&#45;&gt;S_f -->
<g id="edge2" class="edge"><title>S_0&#45;&gt;S_f</title>
<path fill="none" stroke="black" d="M65.4371,-184.493C71.7775,-172.087 80.6262,-154.775 88.1427,-140.069"/>
<polygon fill="black" stroke="black" points="91.4153,-141.356 92.8499,-130.859 85.1823,-138.17 91.4153,-141.356"/>
<text text-anchor="middle" x="85.5" y="-154.3" font-family="Times,serif" font-size="14.00">ε</text>
</g>
<!-- S_1&#45;&gt;S_0 -->
<g id="edge3" class="edge"><title>S_1&#45;&gt;S_0</title>
<path fill="none" stroke="black" d="M32.6175,-127.852C36.9685,-140.906 43.0795,-159.239 48.095,-174.285"/>
<polygon fill="black" stroke="black" points="44.8745,-175.692 51.3572,-184.072 51.5153,-173.478 44.8745,-175.692"/>
<text text-anchor="middle" x="48.5" y="-154.3" font-family="Times,serif" font-size="14.00">ε</text>
</g>
<!-- S_2 -->
<g id="node3" class="node"><title>S_2</title>
<ellipse fill="none" stroke="black" cx="103" cy="-18" rx="27" ry="18"/>
<text text-anchor="middle" x="103" y="-14.3" font-family="Times,serif" font-size="14.00">S_2</text>
</g>
<!-- S_2&#45;&gt;S_f -->
<g id="edge4" class="edge"><title>S_2&#45;&gt;S_f</title>
<path fill="none" stroke="black" d="M103,-36.2581C103,-47.9274 103,-63.6781 103,-77.539"/>
<polygon fill="black" stroke="black" points="99.5001,-77.6712 103,-87.6713 106.5,-77.6713 99.5001,-77.6712"/>
<text text-anchor="middle" x="106.5" y="-58.3" font-family="Times,serif" font-size="14.00">ε</text>
</g>
<!-- S_f&#45;&gt;S_2 -->
<g id="edge5" class="edge"><title>S_f&#45;&gt;S_2</title>
<path fill="none" stroke="black" d="M95.4109,-88.4452C92.4958,-78.1436 90.2425,-65.4538 92,-54 92.4202,-51.2614 93.0152,-48.4428 93.7135,-45.6507"/>
<polygon fill="black" stroke="black" points="97.134,-46.4227 96.5673,-35.8431 90.4127,-44.467 97.134,-46.4227"/>
<text text-anchor="middle" x="95.5" y="-58.3" font-family="Times,serif" font-size="14.00">ε</text>
</g>
<!-- S_f&#45;&gt;S_f -->
<g id="edge6" class="edge"><title>S_f&#45;&gt;S_f</title>
<path fill="none" stroke="black" d="M131.689,-118.965C142.781,-119.363 152,-116.375 152,-110 152,-105.717 147.838,-102.962 141.743,-101.737"/>
<polygon fill="black" stroke="black" points="141.908,-98.2399 131.689,-101.035 141.421,-105.223 141.908,-98.2399"/>
<text text-anchor="middle" x="155.5" y="-106.3" font-family="Times,serif" font-size="14.00">ε</text>
</g>
</g>
</svg>
