<?xml version="1.0" encoding="UTF-8" standalone="no"?>
<!DOCTYPE svg PUBLIC "-//W3C//DTD SVG 1.1//EN"
 "http://www.w3.org/Graphics/SVG/1.1/DTD/svg11.dtd">
<!-- Generated by graphviz version 2.36.0 (20140111.2315)
 -->
<!-- Title: rgfsa Pages: 1 -->
<svg width="120pt" height="52pt"
 viewBox="0.00 0.00 120.00 52.00" xmlns="http://www.w3.org/2000/svg" xmlns:xlink="http://www.w3.org/1999/xlink">
<g id="graph0" class="graph" transform="scale(1 1) rotate(0) translate(4 48)">
<title>rgfsa</title>
<polygon fill="white" stroke="none" points="-4,4 -4,-48 116,-48 116,4 -4,4"/>
<!-- S -->
<g id="node1" class="node"><title>S</title>
<ellipse fill="none" stroke="black" cx="31" cy="-22" rx="27" ry="18"/>
<ellipse fill="none" stroke="black" cx="31" cy="-22" rx="31" ry="22"/>
<text text-anchor="middle" x="31" y="-18.3" font-family="Times,serif" font-size="14.00">S</text>
</g>
<!-- S&#45;&gt;S -->
<g id="edge1" class="edge"><title>S&#45;&gt;S</title>
<path fill="none" stroke="black" d="M61.625,-26.125C71.8333,-26.125 80,-24.75 80,-22 80,-20.2812 76.8099,-19.0996 71.925,-18.4551"/>
<polygon fill="black" stroke="black" points="71.806,-14.9429 61.625,-17.875 71.4123,-21.9318 71.806,-14.9429"/>
<text text-anchor="middle" x="83.5" y="-18.3" font-family="Times,serif" font-size="14.00">ε</text>
</g>
<!-- S&#45;&gt;S -->
<g id="edge2" class="edge"><title>S&#45;&gt;S</title>
<path fill="none" stroke="black" d="M60.273,-29.5607C79.4445,-31.6101 98,-29.0898 98,-22 98,-16.1841 85.5138,-13.4432 70.4439,-13.7772"/>
<polygon fill="black" stroke="black" points="70.0245,-10.297 60.273,-14.4393 70.4793,-17.2822 70.0245,-10.297"/>
<text text-anchor="middle" x="101.5" y="-18.3" font-family="Times,serif" font-size="14.00">a</text>
</g>
</g>
</svg>
