<?xml version="1.0" encoding="UTF-8" standalone="no"?>
<!DOCTYPE svg PUBLIC "-//W3C//DTD SVG 1.1//EN"
 "http://www.w3.org/Graphics/SVG/1.1/DTD/svg11.dtd">
<!-- Generated by graphviz version 2.36.0 (20140111.2315)
 -->
<!-- Title: rgfsa Pages: 1 -->
<svg width="174pt" height="140pt"
 viewBox="0.00 0.00 174.00 140.00" xmlns="http://www.w3.org/2000/svg" xmlns:xlink="http://www.w3.org/1999/xlink">
<g id="graph0" class="graph" transform="scale(1 1) rotate(0) translate(4 136)">
<title>rgfsa</title>
<polygon fill="white" stroke="none" points="-4,4 -4,-136 170,-136 170,4 -4,4"/>
<!-- S_0 -->
<g id="node1" class="node"><title>S_0</title>
<ellipse fill="none" stroke="black" cx="36" cy="-114" rx="27" ry="18"/>
<text text-anchor="middle" x="36" y="-110.3" font-family="Times,serif" font-size="14.00">S_0</text>
</g>
<!-- S_1 -->
<g id="node2" class="node"><title>S_1</title>
<ellipse fill="none" stroke="black" cx="27" cy="-22" rx="27" ry="18"/>
<text text-anchor="middle" x="27" y="-18.3" font-family="Times,serif" font-size="14.00">S_1</text>
</g>
<!-- S_0&#45;&gt;S_1 -->
<g id="edge1" class="edge"><title>S_0&#45;&gt;S_1</title>
<path fill="none" stroke="black" d="M30.7336,-96.0767C29.2106,-90.3912 27.756,-83.9755 27,-78 25.8753,-69.1101 25.5752,-59.347 25.6462,-50.5456"/>
<polygon fill="black" stroke="black" points="29.1484,-50.4901 25.8865,-40.41 22.1504,-50.3242 29.1484,-50.4901"/>
<text text-anchor="middle" x="30.5" y="-66.3" font-family="Times,serif" font-size="14.00">a</text>
</g>
<!-- S_1&#45;&gt;S_0 -->
<g id="edge2" class="edge"><title>S_1&#45;&gt;S_0</title>
<path fill="none" stroke="black" d="M29.3727,-40.0646C30.2718,-46.8789 31.2568,-54.8024 32,-62 32.8027,-69.7743 33.5262,-78.2301 34.1301,-85.9803"/>
<polygon fill="black" stroke="black" points="30.6419,-86.2689 34.8757,-95.981 37.6225,-85.7484 30.6419,-86.2689"/>
<text text-anchor="middle" x="37.5" y="-66.3" font-family="Times,serif" font-size="14.00">ε</text>
</g>
<!-- S_2 -->
<g id="node3" class="node"><title>S_2</title>
<ellipse fill="none" stroke="black" cx="114" cy="-114" rx="27" ry="18"/>
<text text-anchor="middle" x="114" y="-110.3" font-family="Times,serif" font-size="14.00">S_2</text>
</g>
<!-- S_f -->
<g id="node4" class="node"><title>S_f</title>
<ellipse fill="none" stroke="black" cx="110" cy="-22" rx="27" ry="18"/>
<ellipse fill="none" stroke="black" cx="110" cy="-22" rx="31" ry="22"/>
<text text-anchor="middle" x="110" y="-18.3" font-family="Times,serif" font-size="14.00">S_f</text>
</g>
<!-- S_2&#45;&gt;S_f -->
<g id="edge3" class="edge"><title>S_2&#45;&gt;S_f</title>
<path fill="none" stroke="black" d="M102.217,-97.4571C98.5097,-91.6635 94.8916,-84.8291 93,-78 90.6415,-69.485 91.9393,-60.2919 94.6494,-51.9046"/>
<polygon fill="black" stroke="black" points="97.9384,-53.1046 98.3451,-42.5176 91.425,-50.5402 97.9384,-53.1046"/>
<text text-anchor="middle" x="96.5" y="-66.3" font-family="Times,serif" font-size="14.00">ε</text>
</g>
<!-- S_f&#45;&gt;S_2 -->
<g id="edge4" class="edge"><title>S_f&#45;&gt;S_2</title>
<path fill="none" stroke="black" d="M110.938,-44.101C111.488,-56.4798 112.189,-72.2575 112.782,-85.5903"/>
<polygon fill="black" stroke="black" points="109.288,-85.8124 113.229,-95.6471 116.281,-85.5015 109.288,-85.8124"/>
<text text-anchor="middle" x="115.5" y="-66.3" font-family="Times,serif" font-size="14.00">ε</text>
</g>
<!-- S_f&#45;&gt;S_f -->
<g id="edge5" class="edge"><title>S_f&#45;&gt;S_f</title>
<path fill="none" stroke="black" d="M138.689,-30.9648C149.781,-31.3633 159,-28.375 159,-22 159,-17.7168 154.838,-14.9624 148.743,-13.7368"/>
<polygon fill="black" stroke="black" points="148.908,-10.2399 138.689,-13.0352 148.421,-17.223 148.908,-10.2399"/>
<text text-anchor="middle" x="162.5" y="-18.3" font-family="Times,serif" font-size="14.00">ε</text>
</g>
</g>
</svg>
