<?xml version="1.0" encoding="UTF-8" standalone="no"?>
<!DOCTYPE svg PUBLIC "-//W3C//DTD SVG 1.1//EN"
 "http://www.w3.org/Graphics/SVG/1.1/DTD/svg11.dtd">
<!-- Generated by graphviz version 2.36.0 (20140111.2315)
 -->
<!-- Title: rgfsa Pages: 1 -->
<svg width="509pt" height="228pt"
 viewBox="0.00 0.00 509.18 228.00" xmlns="http://www.w3.org/2000/svg" xmlns:xlink="http://www.w3.org/1999/xlink">
<g id="graph0" class="graph" transform="scale(1 1) rotate(0) translate(4 224)">
<title>rgfsa</title>
<polygon fill="white" stroke="none" points="-4,4 -4,-224 505.185,-224 505.185,4 -4,4"/>
<!-- S_0 -->
<g id="node1" class="node"><title>S_0</title>
<ellipse fill="none" stroke="black" cx="255.185" cy="-202" rx="27" ry="18"/>
<text text-anchor="middle" x="255.185" y="-198.3" font-family="Times,serif" font-size="14.00">S_0</text>
</g>
<!-- S_1 -->
<g id="node2" class="node"><title>S_1</title>
<ellipse fill="none" stroke="black" cx="93.1846" cy="-110" rx="27" ry="18"/>
<text text-anchor="middle" x="93.1846" y="-106.3" font-family="Times,serif" font-size="14.00">S_1</text>
</g>
<!-- S_0&#45;&gt;S_1 -->
<g id="edge1" class="edge"><title>S_0&#45;&gt;S_1</title>
<path fill="none" stroke="black" d="M227.778,-201.461C168.994,-201.801 33.802,-198.903 5.18458,-166 -13.8058,-144.166 25.6741,-128.079 57.7299,-119.123"/>
<polygon fill="black" stroke="black" points="59.0173,-122.403 67.7933,-116.467 57.2312,-115.635 59.0173,-122.403"/>
<text text-anchor="middle" x="104.185" y="-154.3" font-family="Times,serif" font-size="14.00">[&#39;#21&#39; &#45; &#39;#D7FF&#39;; &#39;#E000&#39; &#45; &#39;#FFFD&#39;]</text>
</g>
<!-- S_3 -->
<g id="node4" class="node"><title>S_3</title>
<ellipse fill="none" stroke="black" cx="306.185" cy="-110" rx="27" ry="18"/>
<text text-anchor="middle" x="306.185" y="-106.3" font-family="Times,serif" font-size="14.00">S_3</text>
</g>
<!-- S_0&#45;&gt;S_3 -->
<g id="edge2" class="edge"><title>S_0&#45;&gt;S_3</title>
<path fill="none" stroke="black" d="M251.979,-184.053C250.851,-173.686 250.953,-160.454 256.185,-150 260.755,-140.866 268.58,-133.231 276.699,-127.207"/>
<polygon fill="black" stroke="black" points="278.806,-130.008 285.144,-121.518 274.895,-124.203 278.806,-130.008"/>
<text text-anchor="middle" x="319.185" y="-154.3" font-family="Times,serif" font-size="14.00">[&#39;#10000&#39; &#45; &#39;#10FFFF&#39;]</text>
</g>
<!-- S_f -->
<g id="node6" class="node"><title>S_f</title>
<ellipse fill="none" stroke="black" cx="434.185" cy="-110" rx="27" ry="18"/>
<ellipse fill="none" stroke="black" cx="434.185" cy="-110" rx="31" ry="22"/>
<text text-anchor="middle" x="434.185" y="-106.3" font-family="Times,serif" font-size="14.00">S_f</text>
</g>
<!-- S_0&#45;&gt;S_f -->
<g id="edge3" class="edge"><title>S_0&#45;&gt;S_f</title>
<path fill="none" stroke="black" d="M282.139,-200.06C312.593,-197.787 362.433,-190.296 397.185,-166 406.619,-159.404 414.33,-149.565 420.224,-140.025"/>
<polygon fill="black" stroke="black" points="423.408,-141.507 425.314,-131.085 417.325,-138.043 423.408,-141.507"/>
<text text-anchor="middle" x="415.685" y="-154.3" font-family="Times,serif" font-size="14.00">ε</text>
</g>
<!-- S_1&#45;&gt;S_0 -->
<g id="edge4" class="edge"><title>S_1&#45;&gt;S_0</title>
<path fill="none" stroke="black" d="M118.601,-116.654C141.84,-122.577 176.546,-133.365 203.185,-150 215.372,-157.61 226.984,-168.512 236.132,-178.284"/>
<polygon fill="black" stroke="black" points="233.607,-180.711 242.903,-185.794 238.806,-176.024 233.607,-180.711"/>
<text text-anchor="middle" x="227.685" y="-154.3" font-family="Times,serif" font-size="14.00">ε</text>
</g>
<!-- S_2 -->
<g id="node3" class="node"><title>S_2</title>
<ellipse fill="none" stroke="black" cx="393.185" cy="-18" rx="27" ry="18"/>
<text text-anchor="middle" x="393.185" y="-14.3" font-family="Times,serif" font-size="14.00">S_2</text>
</g>
<!-- S_2&#45;&gt;S_f -->
<g id="edge5" class="edge"><title>S_2&#45;&gt;S_f</title>
<path fill="none" stroke="black" d="M400.673,-35.437C406.259,-47.6989 414.042,-64.7839 420.701,-79.4026"/>
<polygon fill="black" stroke="black" points="417.55,-80.9284 424.881,-88.5776 423.92,-78.0264 417.55,-80.9284"/>
<text text-anchor="middle" x="418.685" y="-58.3" font-family="Times,serif" font-size="14.00">ε</text>
</g>
<!-- S_3&#45;&gt;S_0 -->
<g id="edge6" class="edge"><title>S_3&#45;&gt;S_0</title>
<path fill="none" stroke="black" d="M330.845,-117.681C359.017,-126.547 399.159,-143.715 382.185,-166 371.164,-180.468 324.817,-190.469 291.292,-195.968"/>
<polygon fill="black" stroke="black" points="290.688,-192.52 281.353,-197.53 291.775,-199.435 290.688,-192.52"/>
<text text-anchor="middle" x="389.685" y="-154.3" font-family="Times,serif" font-size="14.00">ε</text>
</g>
<!-- S_4 -->
<g id="node5" class="node"><title>S_4</title>
<ellipse fill="none" stroke="black" cx="474.185" cy="-18" rx="27" ry="18"/>
<text text-anchor="middle" x="474.185" y="-14.3" font-family="Times,serif" font-size="14.00">S_4</text>
</g>
<!-- S_4&#45;&gt;S_f -->
<g id="edge7" class="edge"><title>S_4&#45;&gt;S_f</title>
<path fill="none" stroke="black" d="M469.538,-35.8776C466.518,-45.9788 462.213,-58.9578 457.185,-70 455.546,-73.5993 453.663,-77.2902 451.695,-80.8977"/>
<polygon fill="black" stroke="black" points="448.647,-79.1758 446.718,-89.5935 454.723,-82.6525 448.647,-79.1758"/>
<text text-anchor="middle" x="466.685" y="-58.3" font-family="Times,serif" font-size="14.00">ε</text>
</g>
<!-- S_f&#45;&gt;S_2 -->
<g id="edge8" class="edge"><title>S_f&#45;&gt;S_2</title>
<path fill="none" stroke="black" d="M414.573,-92.5699C408.273,-86.1978 401.955,-78.4077 398.185,-70 394.931,-62.7448 393.34,-54.3393 392.647,-46.4711"/>
<polygon fill="black" stroke="black" points="396.132,-46.0658 392.187,-36.2331 389.139,-46.3801 396.132,-46.0658"/>
<text text-anchor="middle" x="401.685" y="-58.3" font-family="Times,serif" font-size="14.00">ε</text>
</g>
<!-- S_f&#45;&gt;S_4 -->
<g id="edge9" class="edge"><title>S_f&#45;&gt;S_4</title>
<path fill="none" stroke="black" d="M439.691,-88.1664C442.788,-77.6817 447.063,-64.9146 452.185,-54 453.885,-50.3757 455.889,-46.6691 457.984,-43.0881"/>
<polygon fill="black" stroke="black" points="460.972,-44.9098 463.255,-34.5639 455.019,-41.2281 460.972,-44.9098"/>
<text text-anchor="middle" x="455.685" y="-58.3" font-family="Times,serif" font-size="14.00">ε</text>
</g>
<!-- S_f&#45;&gt;S_f -->
<g id="edge10" class="edge"><title>S_f&#45;&gt;S_f</title>
<path fill="none" stroke="black" d="M462.873,-118.965C473.965,-119.363 483.185,-116.375 483.185,-110 483.185,-105.717 479.023,-102.962 472.927,-101.737"/>
<polygon fill="black" stroke="black" points="473.093,-98.2399 462.873,-101.035 472.605,-105.223 473.093,-98.2399"/>
<text text-anchor="middle" x="486.685" y="-106.3" font-family="Times,serif" font-size="14.00">ε</text>
</g>
</g>
</svg>
