<?xml version="1.0" encoding="UTF-8" standalone="no"?>
<!DOCTYPE svg PUBLIC "-//W3C//DTD SVG 1.1//EN"
 "http://www.w3.org/Graphics/SVG/1.1/DTD/svg11.dtd">
<!-- Generated by graphviz version 2.36.0 (20140111.2315)
 -->
<!-- Title: rgfsa Pages: 1 -->
<svg width="513pt" height="140pt"
 viewBox="0.00 0.00 513.15 140.00" xmlns="http://www.w3.org/2000/svg" xmlns:xlink="http://www.w3.org/1999/xlink">
<g id="graph0" class="graph" transform="scale(1 1) rotate(0) translate(4 136)">
<title>rgfsa</title>
<polygon fill="white" stroke="none" points="-4,4 -4,-136 509.146,-136 509.146,4 -4,4"/>
<!-- S_0 -->
<g id="node1" class="node"><title>S_0</title>
<ellipse fill="none" stroke="black" cx="240.146" cy="-114" rx="27" ry="18"/>
<text text-anchor="middle" x="240.146" y="-110.3" font-family="Times,serif" font-size="14.00">S_0</text>
</g>
<!-- S_1 -->
<g id="node2" class="node"><title>S_1</title>
<ellipse fill="none" stroke="black" cx="93.1457" cy="-22" rx="27" ry="18"/>
<text text-anchor="middle" x="93.1457" y="-18.3" font-family="Times,serif" font-size="14.00">S_1</text>
</g>
<!-- S_0&#45;&gt;S_1 -->
<g id="edge1" class="edge"><title>S_0&#45;&gt;S_1</title>
<path fill="none" stroke="black" d="M213.106,-113.185C157.17,-112.932 31.7423,-108.851 5.14565,-78 -13.7489,-56.0829 25.7065,-40.0174 57.7309,-31.0884"/>
<polygon fill="black" stroke="black" points="59.0045,-34.3724 67.7839,-28.4417 57.2223,-27.603 59.0045,-34.3724"/>
<text text-anchor="middle" x="104.146" y="-66.3" font-family="Times,serif" font-size="14.00">[&#39;#21&#39; &#45; &#39;#D7FF&#39;; &#39;#E000&#39; &#45; &#39;#FFFD&#39;]</text>
</g>
<!-- S_2 -->
<g id="node3" class="node"><title>S_2</title>
<ellipse fill="none" stroke="black" cx="306.146" cy="-22" rx="27" ry="18"/>
<text text-anchor="middle" x="306.146" y="-18.3" font-family="Times,serif" font-size="14.00">S_2</text>
</g>
<!-- S_0&#45;&gt;S_2 -->
<g id="edge2" class="edge"><title>S_0&#45;&gt;S_2</title>
<path fill="none" stroke="black" d="M242.859,-95.7804C245.131,-85.3114 249.167,-72.0667 256.146,-62 261.918,-53.6735 270.002,-46.2935 277.99,-40.2554"/>
<polygon fill="black" stroke="black" points="280.033,-43.0969 286.178,-34.4656 275.992,-37.3814 280.033,-43.0969"/>
<text text-anchor="middle" x="319.146" y="-66.3" font-family="Times,serif" font-size="14.00">[&#39;#10000&#39; &#45; &#39;#10FFFF&#39;]</text>
</g>
<!-- S_1&#45;&gt;S_0 -->
<g id="edge3" class="edge"><title>S_1&#45;&gt;S_0</title>
<path fill="none" stroke="black" d="M119.255,-27.6406C142.972,-32.865 177.991,-43.1955 203.146,-62 212.441,-68.9488 220.386,-78.8973 226.505,-88.1658"/>
<polygon fill="black" stroke="black" points="223.56,-90.0581 231.795,-96.7236 229.514,-86.3772 223.56,-90.0581"/>
<text text-anchor="middle" x="222.646" y="-66.3" font-family="Times,serif" font-size="14.00">ε</text>
</g>
<!-- S_2&#45;&gt;S_0 -->
<g id="edge4" class="edge"><title>S_2&#45;&gt;S_0</title>
<path fill="none" stroke="black" d="M330.904,-29.7561C359.176,-38.7005 399.422,-55.948 382.146,-78 369.3,-94.3968 314.59,-104.153 276.956,-109.045"/>
<polygon fill="black" stroke="black" points="276.337,-105.595 266.843,-110.297 277.198,-112.542 276.337,-105.595"/>
<text text-anchor="middle" x="389.646" y="-66.3" font-family="Times,serif" font-size="14.00">ε</text>
</g>
<!-- S_3 -->
<g id="node4" class="node"><title>S_3</title>
<ellipse fill="none" stroke="black" cx="449.146" cy="-114" rx="27" ry="18"/>
<text text-anchor="middle" x="449.146" y="-110.3" font-family="Times,serif" font-size="14.00">S_3</text>
</g>
<!-- S_f -->
<g id="node5" class="node"><title>S_f</title>
<ellipse fill="none" stroke="black" cx="449.146" cy="-22" rx="27" ry="18"/>
<ellipse fill="none" stroke="black" cx="449.146" cy="-22" rx="31" ry="22"/>
<text text-anchor="middle" x="449.146" y="-18.3" font-family="Times,serif" font-size="14.00">S_f</text>
</g>
<!-- S_3&#45;&gt;S_f -->
<g id="edge5" class="edge"><title>S_3&#45;&gt;S_f</title>
<path fill="none" stroke="black" d="M442.258,-96.5563C440.182,-90.7939 438.181,-84.2095 437.146,-78 435.79,-69.866 436.632,-61.1192 438.369,-53.047"/>
<polygon fill="black" stroke="black" points="441.779,-53.8426 440.951,-43.2801 435.012,-52.0533 441.779,-53.8426"/>
<text text-anchor="middle" x="440.646" y="-66.3" font-family="Times,serif" font-size="14.00">ε</text>
</g>
<!-- S_f&#45;&gt;S_3 -->
<g id="edge6" class="edge"><title>S_f&#45;&gt;S_3</title>
<path fill="none" stroke="black" d="M449.146,-44.101C449.146,-56.4798 449.146,-72.2575 449.146,-85.5903"/>
<polygon fill="black" stroke="black" points="445.646,-85.6471 449.146,-95.6471 452.646,-85.6471 445.646,-85.6471"/>
<text text-anchor="middle" x="452.646" y="-66.3" font-family="Times,serif" font-size="14.00">ε</text>
</g>
<!-- S_f&#45;&gt;S_f -->
<g id="edge7" class="edge"><title>S_f&#45;&gt;S_f</title>
<path fill="none" stroke="black" d="M477.834,-30.9648C488.926,-31.3633 498.146,-28.375 498.146,-22 498.146,-17.7168 493.984,-14.9624 487.889,-13.7368"/>
<polygon fill="black" stroke="black" points="488.054,-10.2399 477.834,-13.0352 487.566,-17.223 488.054,-10.2399"/>
<text text-anchor="middle" x="501.646" y="-18.3" font-family="Times,serif" font-size="14.00">ε</text>
</g>
</g>
</svg>
