<?xml version="1.0" encoding="UTF-8" standalone="no"?>
<!DOCTYPE svg PUBLIC "-//W3C//DTD SVG 1.1//EN"
 "http://www.w3.org/Graphics/SVG/1.1/DTD/svg11.dtd">
<!-- Generated by graphviz version 2.36.0 (20140111.2315)
 -->
<!-- Title: rgfsa Pages: 1 -->
<svg width="455pt" height="52pt"
 viewBox="0.00 0.00 455.00 52.00" xmlns="http://www.w3.org/2000/svg" xmlns:xlink="http://www.w3.org/1999/xlink">
<g id="graph0" class="graph" transform="scale(1 1) rotate(0) translate(4 48)">
<title>rgfsa</title>
<polygon fill="white" stroke="none" points="-4,4 -4,-48 451,-48 451,4 -4,4"/>
<!-- S -->
<g id="node1" class="node"><title>S</title>
<ellipse fill="none" stroke="black" cx="31" cy="-22" rx="27" ry="18"/>
<ellipse fill="none" stroke="black" cx="31" cy="-22" rx="31" ry="22"/>
<text text-anchor="middle" x="31" y="-18.3" font-family="Times,serif" font-size="14.00">S</text>
</g>
<!-- S&#45;&gt;S -->
<g id="edge1" class="edge"><title>S&#45;&gt;S</title>
<path fill="none" stroke="black" d="M62.102,-24.7493C72.0865,-24.7211 80,-23.8047 80,-22 80,-20.8721 76.9088,-20.0911 72.1528,-19.6571"/>
<polygon fill="black" stroke="black" points="72.2353,-16.1577 62.102,-19.2507 71.9524,-23.152 72.2353,-16.1577"/>
<text text-anchor="middle" x="83.5" y="-18.3" font-family="Times,serif" font-size="14.00">ε</text>
</g>
<!-- S&#45;&gt;S -->
<g id="edge2" class="edge"><title>S&#45;&gt;S</title>
<path fill="none" stroke="black" d="M61.318,-27.1119C80.1132,-28.3446 98,-26.6406 98,-22 98,-18.2295 86.1919,-16.3976 71.6826,-16.5044"/>
<polygon fill="black" stroke="black" points="71.1817,-13.0205 61.318,-16.8881 71.4407,-20.0157 71.1817,-13.0205"/>
<text text-anchor="middle" x="197" y="-18.3" font-family="Times,serif" font-size="14.00">[&#39;#21&#39; &#45; &#39;#D7FF&#39;; &#39;#E000&#39; &#45; &#39;#FFFD&#39;]</text>
</g>
<!-- S&#45;&gt;S -->
<g id="edge3" class="edge"><title>S&#45;&gt;S</title>
<path fill="none" stroke="black" d="M61.306,-26.6546C132.93,-32.6824 296,-31.1309 296,-22 296,-13.2793 147.251,-11.4723 71.4889,-16.5789"/>
<polygon fill="black" stroke="black" points="71.0151,-13.1046 61.306,-17.3454 71.5405,-20.0849 71.0151,-13.1046"/>
<text text-anchor="middle" x="359" y="-18.3" font-family="Times,serif" font-size="14.00">[&#39;#10000&#39; &#45; &#39;#10FFFF&#39;]</text>
</g>
</g>
</svg>
