<?xml version="1.0" encoding="UTF-8" standalone="no"?>
<!DOCTYPE svg PUBLIC "-//W3C//DTD SVG 1.1//EN"
 "http://www.w3.org/Graphics/SVG/1.1/DTD/svg11.dtd">
<!-- Generated by graphviz version 2.36.0 (20140111.2315)
 -->
<!-- Title: rgfsa Pages: 1 -->
<svg width="234pt" height="316pt"
 viewBox="0.00 0.00 234.00 316.00" xmlns="http://www.w3.org/2000/svg" xmlns:xlink="http://www.w3.org/1999/xlink">
<g id="graph0" class="graph" transform="scale(1 1) rotate(0) translate(4 312)">
<title>rgfsa</title>
<polygon fill="white" stroke="none" points="-4,4 -4,-312 230,-312 230,4 -4,4"/>
<!-- S_0 -->
<g id="node1" class="node"><title>S_0</title>
<ellipse fill="none" stroke="black" cx="69" cy="-290" rx="27" ry="18"/>
<text text-anchor="middle" x="69" y="-286.3" font-family="Times,serif" font-size="14.00">S_0</text>
</g>
<!-- S_1 -->
<g id="node2" class="node"><title>S_1</title>
<ellipse fill="none" stroke="black" cx="27" cy="-198" rx="27" ry="18"/>
<text text-anchor="middle" x="27" y="-194.3" font-family="Times,serif" font-size="14.00">S_1</text>
</g>
<!-- S_0&#45;&gt;S_1 -->
<g id="edge1" class="edge"><title>S_0&#45;&gt;S_1</title>
<path fill="none" stroke="black" d="M61.2966,-272.493C55.0801,-259.172 46.2229,-240.192 39.0667,-224.857"/>
<polygon fill="black" stroke="black" points="42.0552,-222.984 34.6546,-215.403 35.7119,-225.945 42.0552,-222.984"/>
<text text-anchor="middle" x="55.5" y="-242.3" font-family="Times,serif" font-size="14.00">a</text>
</g>
<!-- A_0 -->
<g id="node5" class="node"><title>A_0</title>
<ellipse fill="none" stroke="black" cx="27" cy="-106" rx="27" ry="18"/>
<text text-anchor="middle" x="27" y="-102.3" font-family="Times,serif" font-size="14.00">A_0</text>
</g>
<!-- S_1&#45;&gt;A_0 -->
<g id="edge2" class="edge"><title>S_1&#45;&gt;A_0</title>
<path fill="none" stroke="black" d="M27,-179.647C27,-166.823 27,-149.108 27,-134.381"/>
<polygon fill="black" stroke="black" points="30.5001,-134.3 27,-124.3 23.5001,-134.3 30.5001,-134.3"/>
<text text-anchor="middle" x="30.5" y="-146.3" font-family="Times,serif" font-size="14.00">ε</text>
</g>
<!-- S_2 -->
<g id="node3" class="node"><title>S_2</title>
<ellipse fill="none" stroke="black" cx="165" cy="-290" rx="27" ry="18"/>
<text text-anchor="middle" x="165" y="-286.3" font-family="Times,serif" font-size="14.00">S_2</text>
</g>
<!-- S_f -->
<g id="node4" class="node"><title>S_f</title>
<ellipse fill="none" stroke="black" cx="147" cy="-198" rx="27" ry="18"/>
<ellipse fill="none" stroke="black" cx="147" cy="-198" rx="31" ry="22"/>
<text text-anchor="middle" x="147" y="-194.3" font-family="Times,serif" font-size="14.00">S_f</text>
</g>
<!-- S_2&#45;&gt;S_f -->
<g id="edge3" class="edge"><title>S_2&#45;&gt;S_f</title>
<path fill="none" stroke="black" d="M161.614,-272.072C159.238,-260.189 155.992,-243.959 153.162,-229.812"/>
<polygon fill="black" stroke="black" points="156.588,-229.091 151.194,-219.971 149.724,-230.464 156.588,-229.091"/>
<text text-anchor="middle" x="160.5" y="-242.3" font-family="Times,serif" font-size="14.00">ε</text>
</g>
<!-- S_f&#45;&gt;S_f -->
<g id="edge5" class="edge"><title>S_f&#45;&gt;S_f</title>
<path fill="none" stroke="black" d="M175.689,-206.965C186.781,-207.363 196,-204.375 196,-198 196,-193.717 191.838,-190.962 185.743,-189.737"/>
<polygon fill="black" stroke="black" points="185.908,-186.24 175.689,-189.035 185.421,-193.223 185.908,-186.24"/>
<text text-anchor="middle" x="199.5" y="-194.3" font-family="Times,serif" font-size="14.00">ε</text>
</g>
<!-- A_2 -->
<g id="node7" class="node"><title>A_2</title>
<ellipse fill="none" stroke="black" cx="163" cy="-106" rx="27" ry="18"/>
<text text-anchor="middle" x="163" y="-102.3" font-family="Times,serif" font-size="14.00">A_2</text>
</g>
<!-- S_f&#45;&gt;A_2 -->
<g id="edge4" class="edge"><title>S_f&#45;&gt;A_2</title>
<path fill="none" stroke="black" d="M150.711,-176.126C152.925,-163.67 155.762,-147.712 158.152,-134.268"/>
<polygon fill="black" stroke="black" points="161.648,-134.598 159.953,-124.14 154.756,-133.373 161.648,-134.598"/>
<text text-anchor="middle" x="159.5" y="-146.3" font-family="Times,serif" font-size="14.00">ε</text>
</g>
<!-- A_1 -->
<g id="node6" class="node"><title>A_1</title>
<ellipse fill="none" stroke="black" cx="79" cy="-18" rx="27" ry="18"/>
<text text-anchor="middle" x="79" y="-14.3" font-family="Times,serif" font-size="14.00">A_1</text>
</g>
<!-- A_0&#45;&gt;A_1 -->
<g id="edge6" class="edge"><title>A_0&#45;&gt;A_1</title>
<path fill="none" stroke="black" d="M36.7808,-88.8241C44.4071,-76.2114 55.1331,-58.4722 63.8653,-44.0305"/>
<polygon fill="black" stroke="black" points="67.0839,-45.4717 69.2631,-35.1034 61.0937,-41.8498 67.0839,-45.4717"/>
<text text-anchor="middle" x="62" y="-58.3" font-family="Times,serif" font-size="14.00">b</text>
</g>
<!-- A_1&#45;&gt;S_0 -->
<g id="edge7" class="edge"><title>A_1&#45;&gt;S_0</title>
<path fill="none" stroke="black" d="M78.3646,-36.1564C76.6774,-81.7103 72.0737,-206.009 70.0166,-261.551"/>
<polygon fill="black" stroke="black" points="66.5134,-261.577 69.6408,-271.7 73.5086,-261.836 66.5134,-261.577"/>
<text text-anchor="middle" x="78.5" y="-146.3" font-family="Times,serif" font-size="14.00">ε</text>
</g>
<!-- A_f -->
<g id="node8" class="node"><title>A_f</title>
<ellipse fill="none" stroke="black" cx="164" cy="-18" rx="27" ry="18"/>
<text text-anchor="middle" x="164" y="-14.3" font-family="Times,serif" font-size="14.00">A_f</text>
</g>
<!-- A_2&#45;&gt;A_f -->
<g id="edge8" class="edge"><title>A_2&#45;&gt;A_f</title>
<path fill="none" stroke="black" d="M163.202,-87.5966C163.34,-75.7459 163.525,-59.8169 163.683,-46.2917"/>
<polygon fill="black" stroke="black" points="167.185,-46.1241 163.801,-36.084 160.185,-46.0426 167.185,-46.1241"/>
<text text-anchor="middle" x="166.5" y="-58.3" font-family="Times,serif" font-size="14.00">ε</text>
</g>
<!-- A_f&#45;&gt;S_2 -->
<g id="edge9" class="edge"><title>A_f&#45;&gt;S_2</title>
<path fill="none" stroke="black" d="M173.891,-34.8178C181.925,-48.4109 192.891,-68.8002 199,-88 216.874,-144.176 229.364,-163.665 212,-220 206.712,-237.157 195.538,-253.865 185.411,-266.542"/>
<polygon fill="black" stroke="black" points="182.696,-264.332 178.981,-274.254 188.073,-268.815 182.696,-264.332"/>
<text text-anchor="middle" x="222.5" y="-146.3" font-family="Times,serif" font-size="14.00">ε</text>
</g>
</g>
</svg>
