<?xml version="1.0" encoding="UTF-8" standalone="no"?>
<!DOCTYPE svg PUBLIC "-//W3C//DTD SVG 1.1//EN"
 "http://www.w3.org/Graphics/SVG/1.1/DTD/svg11.dtd">
<!-- Generated by graphviz version 2.36.0 (20140111.2315)
 -->
<!-- Title: rgfsa Pages: 1 -->
<svg width="95pt" height="148pt"
 viewBox="0.00 0.00 95.00 148.00" xmlns="http://www.w3.org/2000/svg" xmlns:xlink="http://www.w3.org/1999/xlink">
<g id="graph0" class="graph" transform="scale(1 1) rotate(0) translate(4 144)">
<title>rgfsa</title>
<polygon fill="white" stroke="none" points="-4,4 -4,-144 91,-144 91,4 -4,4"/>
<!-- S -->
<g id="node1" class="node"><title>S</title>
<ellipse fill="none" stroke="black" cx="31" cy="-118" rx="27" ry="18"/>
<ellipse fill="none" stroke="black" cx="31" cy="-118" rx="31" ry="22"/>
<text text-anchor="middle" x="31" y="-114.3" font-family="Times,serif" font-size="14.00">S</text>
</g>
<!-- S&#45;&gt;S -->
<g id="edge1" class="edge"><title>S&#45;&gt;S</title>
<path fill="none" stroke="black" d="M59.6885,-126.965C70.7806,-127.363 80,-124.375 80,-118 80,-113.717 75.8382,-110.962 69.7429,-109.737"/>
<polygon fill="black" stroke="black" points="69.9079,-106.24 59.6885,-109.035 69.4205,-113.223 69.9079,-106.24"/>
<text text-anchor="middle" x="83.5" y="-114.3" font-family="Times,serif" font-size="14.00">ε</text>
</g>
<!-- A -->
<g id="node2" class="node"><title>A</title>
<ellipse fill="none" stroke="black" cx="31" cy="-22" rx="27" ry="18"/>
<ellipse fill="none" stroke="black" cx="31" cy="-22" rx="31" ry="22"/>
<text text-anchor="middle" x="31" y="-18.3" font-family="Times,serif" font-size="14.00">A</text>
</g>
<!-- S&#45;&gt;A -->
<g id="edge2" class="edge"><title>S&#45;&gt;A</title>
<path fill="none" stroke="black" d="M22.9617,-96.7446C19.7838,-86.4073 17.2561,-73.5975 19,-62 19.4345,-59.1103 20.0406,-56.1393 20.7516,-53.1881"/>
<polygon fill="black" stroke="black" points="24.1723,-53.9503 23.4767,-43.3783 17.4277,-52.0766 24.1723,-53.9503"/>
<text text-anchor="middle" x="22.5" y="-66.3" font-family="Times,serif" font-size="14.00">a</text>
</g>
<!-- A&#45;&gt;S -->
<g id="edge4" class="edge"><title>A&#45;&gt;S</title>
<path fill="none" stroke="black" d="M31,-44.2456C31,-56.369 31,-71.7998 31,-85.328"/>
<polygon fill="black" stroke="black" points="27.5001,-85.6699 31,-95.6699 34.5001,-85.67 27.5001,-85.6699"/>
<text text-anchor="middle" x="35" y="-66.3" font-family="Times,serif" font-size="14.00">b</text>
</g>
<!-- A&#45;&gt;A -->
<g id="edge3" class="edge"><title>A&#45;&gt;A</title>
<path fill="none" stroke="black" d="M59.6885,-30.9648C70.7806,-31.3633 80,-28.375 80,-22 80,-17.7168 75.8382,-14.9624 69.7429,-13.7368"/>
<polygon fill="black" stroke="black" points="69.9079,-10.2399 59.6885,-13.0352 69.4205,-17.223 69.9079,-10.2399"/>
<text text-anchor="middle" x="83.5" y="-18.3" font-family="Times,serif" font-size="14.00">ε</text>
</g>
</g>
</svg>
