<?xml version="1.0" encoding="UTF-8" standalone="no"?>
<!DOCTYPE svg PUBLIC "-//W3C//DTD SVG 1.1//EN"
 "http://www.w3.org/Graphics/SVG/1.1/DTD/svg11.dtd">
<!-- Generated by graphviz version 2.36.0 (20140111.2315)
 -->
<!-- Title: rgfsa Pages: 1 -->
<svg width="169pt" height="580pt"
 viewBox="0.00 0.00 169.00 580.00" xmlns="http://www.w3.org/2000/svg" xmlns:xlink="http://www.w3.org/1999/xlink">
<g id="graph0" class="graph" transform="scale(1 1) rotate(0) translate(4 576)">
<title>rgfsa</title>
<polygon fill="white" stroke="none" points="-4,4 -4,-576 165,-576 165,4 -4,4"/>
<!-- S_0 -->
<g id="node1" class="node"><title>S_0</title>
<ellipse fill="none" stroke="black" cx="90" cy="-554" rx="27" ry="18"/>
<text text-anchor="middle" x="90" y="-550.3" font-family="Times,serif" font-size="14.00">S_0</text>
</g>
<!-- S_1 -->
<g id="node2" class="node"><title>S_1</title>
<ellipse fill="none" stroke="black" cx="90" cy="-466" rx="27" ry="18"/>
<text text-anchor="middle" x="90" y="-462.3" font-family="Times,serif" font-size="14.00">S_1</text>
</g>
<!-- S_0&#45;&gt;S_1 -->
<g id="edge1" class="edge"><title>S_0&#45;&gt;S_1</title>
<path fill="none" stroke="black" d="M90,-535.597C90,-523.746 90,-507.817 90,-494.292"/>
<polygon fill="black" stroke="black" points="93.5001,-494.084 90,-484.084 86.5001,-494.084 93.5001,-494.084"/>
<text text-anchor="middle" x="93.5" y="-506.3" font-family="Times,serif" font-size="14.00">a</text>
</g>
<!-- S_f -->
<g id="node4" class="node"><title>S_f</title>
<ellipse fill="none" stroke="black" cx="103" cy="-110" rx="27" ry="18"/>
<ellipse fill="none" stroke="black" cx="103" cy="-110" rx="31" ry="22"/>
<text text-anchor="middle" x="103" y="-106.3" font-family="Times,serif" font-size="14.00">S_f</text>
</g>
<!-- S_0&#45;&gt;S_f -->
<g id="edge2" class="edge"><title>S_0&#45;&gt;S_f</title>
<path fill="none" stroke="black" d="M107.828,-540.314C126.765,-525.208 154,-498.081 154,-467 154,-467 154,-467 154,-201 154,-176.923 140.014,-153.382 126.69,-136.418"/>
<polygon fill="black" stroke="black" points="129.334,-134.124 120.266,-128.645 123.939,-138.583 129.334,-134.124"/>
<text text-anchor="middle" x="157.5" y="-330.3" font-family="Times,serif" font-size="14.00">ε</text>
</g>
<!-- A_0 -->
<g id="node5" class="node"><title>A_0</title>
<ellipse fill="none" stroke="black" cx="90" cy="-378" rx="27" ry="18"/>
<text text-anchor="middle" x="90" y="-374.3" font-family="Times,serif" font-size="14.00">A_0</text>
</g>
<!-- S_1&#45;&gt;A_0 -->
<g id="edge3" class="edge"><title>S_1&#45;&gt;A_0</title>
<path fill="none" stroke="black" d="M90,-447.597C90,-435.746 90,-419.817 90,-406.292"/>
<polygon fill="black" stroke="black" points="93.5001,-406.084 90,-396.084 86.5001,-406.084 93.5001,-406.084"/>
<text text-anchor="middle" x="93.5" y="-418.3" font-family="Times,serif" font-size="14.00">ε</text>
</g>
<!-- S_2 -->
<g id="node3" class="node"><title>S_2</title>
<ellipse fill="none" stroke="black" cx="99" cy="-202" rx="27" ry="18"/>
<text text-anchor="middle" x="99" y="-198.3" font-family="Times,serif" font-size="14.00">S_2</text>
</g>
<!-- S_2&#45;&gt;S_f -->
<g id="edge4" class="edge"><title>S_2&#45;&gt;S_f</title>
<path fill="none" stroke="black" d="M99.7712,-183.647C100.292,-171.924 100.995,-156.114 101.612,-142.237"/>
<polygon fill="black" stroke="black" points="105.115,-142.247 102.062,-132.101 98.1215,-141.936 105.115,-142.247"/>
<text text-anchor="middle" x="104.5" y="-154.3" font-family="Times,serif" font-size="14.00">ε</text>
</g>
<!-- S_f&#45;&gt;S_f -->
<g id="edge6" class="edge"><title>S_f&#45;&gt;S_f</title>
<path fill="none" stroke="black" d="M131.689,-118.965C142.781,-119.363 152,-116.375 152,-110 152,-105.717 147.838,-102.962 141.743,-101.737"/>
<polygon fill="black" stroke="black" points="141.908,-98.2399 131.689,-101.035 141.421,-105.223 141.908,-98.2399"/>
<text text-anchor="middle" x="155.5" y="-106.3" font-family="Times,serif" font-size="14.00">ε</text>
</g>
<!-- A_2 -->
<g id="node7" class="node"><title>A_2</title>
<ellipse fill="none" stroke="black" cx="67" cy="-18" rx="27" ry="18"/>
<text text-anchor="middle" x="67" y="-14.3" font-family="Times,serif" font-size="14.00">A_2</text>
</g>
<!-- S_f&#45;&gt;A_2 -->
<g id="edge5" class="edge"><title>S_f&#45;&gt;A_2</title>
<path fill="none" stroke="black" d="M94.831,-88.5776C89.6895,-75.7237 83.0042,-59.0105 77.4745,-45.1863"/>
<polygon fill="black" stroke="black" points="80.6545,-43.7121 73.6909,-35.7273 74.1552,-46.3119 80.6545,-43.7121"/>
<text text-anchor="middle" x="90.5" y="-58.3" font-family="Times,serif" font-size="14.00">ε</text>
</g>
<!-- A_1 -->
<g id="node6" class="node"><title>A_1</title>
<ellipse fill="none" stroke="black" cx="27" cy="-290" rx="27" ry="18"/>
<text text-anchor="middle" x="27" y="-286.3" font-family="Times,serif" font-size="14.00">A_1</text>
</g>
<!-- A_0&#45;&gt;A_1 -->
<g id="edge7" class="edge"><title>A_0&#45;&gt;A_1</title>
<path fill="none" stroke="black" d="M78.7369,-361.625C69.2102,-348.62 55.4009,-329.769 44.445,-314.814"/>
<polygon fill="black" stroke="black" points="47.1111,-312.531 38.378,-306.532 41.4642,-316.667 47.1111,-312.531"/>
<text text-anchor="middle" x="68" y="-330.3" font-family="Times,serif" font-size="14.00">b</text>
</g>
<!-- A_f -->
<g id="node8" class="node"><title>A_f</title>
<ellipse fill="none" stroke="black" cx="99" cy="-290" rx="27" ry="18"/>
<text text-anchor="middle" x="99" y="-286.3" font-family="Times,serif" font-size="14.00">A_f</text>
</g>
<!-- A_0&#45;&gt;A_f -->
<g id="edge8" class="edge"><title>A_0&#45;&gt;A_f</title>
<path fill="none" stroke="black" d="M91.7781,-360.009C93.015,-348.19 94.6914,-332.171 96.1177,-318.542"/>
<polygon fill="black" stroke="black" points="99.6349,-318.56 97.1948,-308.25 92.6729,-317.831 99.6349,-318.56"/>
<text text-anchor="middle" x="98.5" y="-330.3" font-family="Times,serif" font-size="14.00">ε</text>
</g>
<!-- A_1&#45;&gt;S_0 -->
<g id="edge9" class="edge"><title>A_1&#45;&gt;S_0</title>
<path fill="none" stroke="black" d="M27.451,-308.213C28.771,-342.481 33.9291,-421.33 54,-484 58.9743,-499.532 67.2609,-515.757 74.6306,-528.568"/>
<polygon fill="black" stroke="black" points="71.6607,-530.422 79.7744,-537.235 77.6803,-526.849 71.6607,-530.422"/>
<text text-anchor="middle" x="43.5" y="-418.3" font-family="Times,serif" font-size="14.00">ε</text>
</g>
<!-- A_2&#45;&gt;A_f -->
<g id="edge10" class="edge"><title>A_2&#45;&gt;A_f</title>
<path fill="none" stroke="black" d="M63.7592,-35.999C57.7085,-71.0331 46.7094,-153.559 63,-220 66.8837,-235.84 75.1082,-252.082 82.7168,-264.826"/>
<polygon fill="black" stroke="black" points="79.8192,-266.794 88.0773,-273.431 85.7608,-263.093 79.8192,-266.794"/>
<text text-anchor="middle" x="58.5" y="-154.3" font-family="Times,serif" font-size="14.00">ε</text>
</g>
<!-- A_f&#45;&gt;S_2 -->
<g id="edge11" class="edge"><title>A_f&#45;&gt;S_2</title>
<path fill="none" stroke="black" d="M99,-271.597C99,-259.746 99,-243.817 99,-230.292"/>
<polygon fill="black" stroke="black" points="102.5,-230.084 99,-220.084 95.5001,-230.084 102.5,-230.084"/>
<text text-anchor="middle" x="102.5" y="-242.3" font-family="Times,serif" font-size="14.00">ε</text>
</g>
</g>
</svg>
