<?xml version="1.0" encoding="UTF-8" standalone="no"?>
<!DOCTYPE svg PUBLIC "-//W3C//DTD SVG 1.1//EN"
 "http://www.w3.org/Graphics/SVG/1.1/DTD/svg11.dtd">
<!-- Generated by graphviz version 2.36.0 (20140111.2315)
 -->
<!-- Title: rgfsa Pages: 1 -->
<svg width="427pt" height="44pt"
 viewBox="0.00 0.00 427.00 44.00" xmlns="http://www.w3.org/2000/svg" xmlns:xlink="http://www.w3.org/1999/xlink">
<g id="graph0" class="graph" transform="scale(1 1) rotate(0) translate(4 40)">
<title>rgfsa</title>
<polygon fill="white" stroke="none" points="-4,4 -4,-40 423,-40 423,4 -4,4"/>
<!-- S -->
<g id="node1" class="node"><title>S</title>
<ellipse fill="none" stroke="black" cx="27" cy="-18" rx="27" ry="18"/>
<text text-anchor="middle" x="27" y="-14.3" font-family="Times,serif" font-size="14.00">S</text>
</g>
<!-- S&#45;&gt;S -->
<g id="edge1" class="edge"><title>S&#45;&gt;S</title>
<path fill="none" stroke="black" d="M53.7949,-21.3676C63.7804,-21.478 72,-20.3555 72,-18 72,-16.5278 68.7892,-15.5373 63.9433,-15.0283"/>
<polygon fill="black" stroke="black" points="63.9237,-11.525 53.7949,-14.6324 63.6508,-18.5197 63.9237,-11.525"/>
<text text-anchor="middle" x="75.5" y="-14.3" font-family="Times,serif" font-size="14.00">a</text>
</g>
<!-- S&#45;&gt;S -->
<g id="edge2" class="edge"><title>S&#45;&gt;S</title>
<path fill="none" stroke="black" d="M52.5573,-23.9882C71.2603,-26.0078 90,-24.0117 90,-18 90,-13.0685 77.3899,-10.8392 62.534,-11.3121"/>
<polygon fill="black" stroke="black" points="62.2879,-7.82063 52.5573,-12.0118 62.7777,-14.8035 62.2879,-7.82063"/>
<text text-anchor="middle" x="251" y="-14.3" font-family="Times,serif" font-size="14.00">[&#39;#80&#39; &#45; &#39;#D7FF&#39;; &#39;#E000&#39; &#45; &#39;#FFFD&#39;; &#39;#10000&#39; &#45; &#39;#10FFFF&#39;]</text>
</g>
</g>
</svg>
