<?xml version="1.0" encoding="UTF-8" standalone="no"?>
<!DOCTYPE svg PUBLIC "-//W3C//DTD SVG 1.1//EN"
 "http://www.w3.org/Graphics/SVG/1.1/DTD/svg11.dtd">
<!-- Generated by graphviz version 2.36.0 (20140111.2315)
 -->
<!-- Title: rgfsa Pages: 1 -->
<svg width="526pt" height="228pt"
 viewBox="0.00 0.00 526.00 228.00" xmlns="http://www.w3.org/2000/svg" xmlns:xlink="http://www.w3.org/1999/xlink">
<g id="graph0" class="graph" transform="scale(1 1) rotate(0) translate(4 224)">
<title>rgfsa</title>
<polygon fill="white" stroke="none" points="-4,4 -4,-224 522,-224 522,4 -4,4"/>
<!-- S_0 -->
<g id="node1" class="node"><title>S_0</title>
<ellipse fill="none" stroke="black" cx="57" cy="-202" rx="27" ry="18"/>
<text text-anchor="middle" x="57" y="-198.3" font-family="Times,serif" font-size="14.00">S_0</text>
</g>
<!-- S_1 -->
<g id="node2" class="node"><title>S_1</title>
<ellipse fill="none" stroke="black" cx="27" cy="-110" rx="27" ry="18"/>
<text text-anchor="middle" x="27" y="-106.3" font-family="Times,serif" font-size="14.00">S_1</text>
</g>
<!-- S_0&#45;&gt;S_1 -->
<g id="edge1" class="edge"><title>S_0&#45;&gt;S_1</title>
<path fill="none" stroke="black" d="M36.8047,-189.685C28.4203,-183.811 19.5896,-175.799 15,-166 10.7989,-157.031 11.8046,-146.543 14.553,-137.145"/>
<polygon fill="black" stroke="black" points="17.9325,-138.093 18.0554,-127.499 11.3527,-135.704 17.9325,-138.093"/>
<text text-anchor="middle" x="18.5" y="-154.3" font-family="Times,serif" font-size="14.00">a</text>
</g>
<!-- S_3 -->
<g id="node4" class="node"><title>S_3</title>
<ellipse fill="none" stroke="black" cx="242" cy="-110" rx="27" ry="18"/>
<text text-anchor="middle" x="242" y="-106.3" font-family="Times,serif" font-size="14.00">S_3</text>
</g>
<!-- S_0&#45;&gt;S_3 -->
<g id="edge2" class="edge"><title>S_0&#45;&gt;S_3</title>
<path fill="none" stroke="black" d="M58.1459,-183.539C59.8016,-172.431 63.7383,-158.573 73,-150 92.0257,-132.389 161.919,-120.825 205.641,-115.14"/>
<polygon fill="black" stroke="black" points="206.127,-118.607 215.612,-113.886 205.254,-111.661 206.127,-118.607"/>
<text text-anchor="middle" x="234" y="-154.3" font-family="Times,serif" font-size="14.00">[&#39;#80&#39; &#45; &#39;#D7FF&#39;; &#39;#E000&#39; &#45; &#39;#FFFD&#39;; &#39;#10000&#39; &#45; &#39;#10FFFF&#39;]</text>
</g>
<!-- S_1&#45;&gt;S_0 -->
<g id="edge3" class="edge"><title>S_1&#45;&gt;S_0</title>
<path fill="none" stroke="black" d="M32.4536,-127.87C35.9917,-138.764 40.723,-153.235 45,-166 45.9375,-168.798 46.9249,-171.719 47.9141,-174.628"/>
<polygon fill="black" stroke="black" points="44.6676,-175.952 51.2147,-184.281 51.2911,-173.687 44.6676,-175.952"/>
<text text-anchor="middle" x="48.5" y="-154.3" font-family="Times,serif" font-size="14.00">ε</text>
</g>
<!-- S_2 -->
<g id="node3" class="node"><title>S_2</title>
<ellipse fill="none" stroke="black" cx="462" cy="-202" rx="27" ry="18"/>
<text text-anchor="middle" x="462" y="-198.3" font-family="Times,serif" font-size="14.00">S_2</text>
</g>
<!-- S_f -->
<g id="node6" class="node"><title>S_f</title>
<ellipse fill="none" stroke="black" cx="462" cy="-110" rx="27" ry="18"/>
<ellipse fill="none" stroke="black" cx="462" cy="-110" rx="31" ry="22"/>
<text text-anchor="middle" x="462" y="-106.3" font-family="Times,serif" font-size="14.00">S_f</text>
</g>
<!-- S_2&#45;&gt;S_f -->
<g id="edge4" class="edge"><title>S_2&#45;&gt;S_f</title>
<path fill="none" stroke="black" d="M455.112,-184.556C453.036,-178.794 451.035,-172.209 450,-166 448.644,-157.866 449.486,-149.119 451.223,-141.047"/>
<polygon fill="black" stroke="black" points="454.633,-141.843 453.806,-131.28 447.866,-140.053 454.633,-141.843"/>
<text text-anchor="middle" x="453.5" y="-154.3" font-family="Times,serif" font-size="14.00">ε</text>
</g>
<!-- S_3&#45;&gt;S_0 -->
<g id="edge5" class="edge"><title>S_3&#45;&gt;S_0</title>
<path fill="none" stroke="black" d="M268.973,-111.857C322.123,-114.448 432.145,-124.81 395,-166 375.132,-188.031 177.814,-197.049 94.1677,-199.902"/>
<polygon fill="black" stroke="black" points="93.9607,-196.407 84.0816,-200.235 94.1916,-203.403 93.9607,-196.407"/>
<text text-anchor="middle" x="406.5" y="-154.3" font-family="Times,serif" font-size="14.00">ε</text>
</g>
<!-- S_4 -->
<g id="node5" class="node"><title>S_4</title>
<ellipse fill="none" stroke="black" cx="462" cy="-18" rx="27" ry="18"/>
<text text-anchor="middle" x="462" y="-14.3" font-family="Times,serif" font-size="14.00">S_4</text>
</g>
<!-- S_4&#45;&gt;S_f -->
<g id="edge6" class="edge"><title>S_4&#45;&gt;S_f</title>
<path fill="none" stroke="black" d="M462,-36.2581C462,-47.9274 462,-63.6781 462,-77.539"/>
<polygon fill="black" stroke="black" points="458.5,-77.6712 462,-87.6713 465.5,-77.6713 458.5,-77.6712"/>
<text text-anchor="middle" x="465.5" y="-58.3" font-family="Times,serif" font-size="14.00">ε</text>
</g>
<!-- S_f&#45;&gt;S_2 -->
<g id="edge7" class="edge"><title>S_f&#45;&gt;S_2</title>
<path fill="none" stroke="black" d="M462,-132.101C462,-144.48 462,-160.258 462,-173.59"/>
<polygon fill="black" stroke="black" points="458.5,-173.647 462,-183.647 465.5,-173.647 458.5,-173.647"/>
<text text-anchor="middle" x="465.5" y="-154.3" font-family="Times,serif" font-size="14.00">ε</text>
</g>
<!-- S_f&#45;&gt;S_4 -->
<g id="edge8" class="edge"><title>S_f&#45;&gt;S_4</title>
<path fill="none" stroke="black" d="M454.411,-88.4452C451.496,-78.1436 449.242,-65.4538 451,-54 451.42,-51.2614 452.015,-48.4428 452.714,-45.6507"/>
<polygon fill="black" stroke="black" points="456.134,-46.4227 455.567,-35.8431 449.413,-44.467 456.134,-46.4227"/>
<text text-anchor="middle" x="454.5" y="-58.3" font-family="Times,serif" font-size="14.00">ε</text>
</g>
<!-- S_f&#45;&gt;S_f -->
<g id="edge9" class="edge"><title>S_f&#45;&gt;S_f</title>
<path fill="none" stroke="black" d="M490.689,-118.965C501.781,-119.363 511,-116.375 511,-110 511,-105.717 506.838,-102.962 500.743,-101.737"/>
<polygon fill="black" stroke="black" points="500.908,-98.2399 490.689,-101.035 500.421,-105.223 500.908,-98.2399"/>
<text text-anchor="middle" x="514.5" y="-106.3" font-family="Times,serif" font-size="14.00">ε</text>
</g>
</g>
</svg>
