<?xml version="1.0" encoding="UTF-8" standalone="no"?>
<!DOCTYPE svg PUBLIC "-//W3C//DTD SVG 1.1//EN"
 "http://www.w3.org/Graphics/SVG/1.1/DTD/svg11.dtd">
<!-- Generated by graphviz version 2.36.0 (20140111.2315)
 -->
<!-- Title: rgfsa Pages: 1 -->
<svg width="235pt" height="316pt"
 viewBox="0.00 0.00 235.00 316.00" xmlns="http://www.w3.org/2000/svg" xmlns:xlink="http://www.w3.org/1999/xlink">
<g id="graph0" class="graph" transform="scale(1 1) rotate(0) translate(4 312)">
<title>rgfsa</title>
<polygon fill="white" stroke="none" points="-4,4 -4,-312 231,-312 231,4 -4,4"/>
<!-- S_0 -->
<g id="node1" class="node"><title>S_0</title>
<ellipse fill="none" stroke="black" cx="27" cy="-290" rx="27" ry="18"/>
<text text-anchor="middle" x="27" y="-286.3" font-family="Times,serif" font-size="14.00">S_0</text>
</g>
<!-- S_1 -->
<g id="node2" class="node"><title>S_1</title>
<ellipse fill="none" stroke="black" cx="27" cy="-202" rx="27" ry="18"/>
<text text-anchor="middle" x="27" y="-198.3" font-family="Times,serif" font-size="14.00">S_1</text>
</g>
<!-- S_0&#45;&gt;S_1 -->
<g id="edge1" class="edge"><title>S_0&#45;&gt;S_1</title>
<path fill="none" stroke="black" d="M27,-271.597C27,-259.746 27,-243.817 27,-230.292"/>
<polygon fill="black" stroke="black" points="30.5001,-230.084 27,-220.084 23.5001,-230.084 30.5001,-230.084"/>
<text text-anchor="middle" x="30.5" y="-242.3" font-family="Times,serif" font-size="14.00">a</text>
</g>
<!-- A_0 -->
<g id="node5" class="node"><title>A_0</title>
<ellipse fill="none" stroke="black" cx="27" cy="-110" rx="27" ry="18"/>
<text text-anchor="middle" x="27" y="-106.3" font-family="Times,serif" font-size="14.00">A_0</text>
</g>
<!-- S_1&#45;&gt;A_0 -->
<g id="edge2" class="edge"><title>S_1&#45;&gt;A_0</title>
<path fill="none" stroke="black" d="M27,-183.647C27,-170.823 27,-153.108 27,-138.381"/>
<polygon fill="black" stroke="black" points="30.5001,-138.3 27,-128.3 23.5001,-138.3 30.5001,-138.3"/>
<text text-anchor="middle" x="30.5" y="-154.3" font-family="Times,serif" font-size="14.00">ε</text>
</g>
<!-- S_2 -->
<g id="node3" class="node"><title>S_2</title>
<ellipse fill="none" stroke="black" cx="171" cy="-202" rx="27" ry="18"/>
<text text-anchor="middle" x="171" y="-198.3" font-family="Times,serif" font-size="14.00">S_2</text>
</g>
<!-- S_f -->
<g id="node4" class="node"><title>S_f</title>
<ellipse fill="none" stroke="black" cx="171" cy="-110" rx="27" ry="18"/>
<ellipse fill="none" stroke="black" cx="171" cy="-110" rx="31" ry="22"/>
<text text-anchor="middle" x="171" y="-106.3" font-family="Times,serif" font-size="14.00">S_f</text>
</g>
<!-- S_2&#45;&gt;S_f -->
<g id="edge3" class="edge"><title>S_2&#45;&gt;S_f</title>
<path fill="none" stroke="black" d="M171,-183.647C171,-171.924 171,-156.114 171,-142.237"/>
<polygon fill="black" stroke="black" points="174.5,-142.101 171,-132.101 167.5,-142.101 174.5,-142.101"/>
<text text-anchor="middle" x="174.5" y="-154.3" font-family="Times,serif" font-size="14.00">ε</text>
</g>
<!-- S_f&#45;&gt;S_f -->
<g id="edge4" class="edge"><title>S_f&#45;&gt;S_f</title>
<path fill="none" stroke="black" d="M199.689,-118.965C210.781,-119.363 220,-116.375 220,-110 220,-105.717 215.838,-102.962 209.743,-101.737"/>
<polygon fill="black" stroke="black" points="209.908,-98.2399 199.689,-101.035 209.421,-105.223 209.908,-98.2399"/>
<text text-anchor="middle" x="223.5" y="-106.3" font-family="Times,serif" font-size="14.00">ε</text>
</g>
<!-- A_1 -->
<g id="node6" class="node"><title>A_1</title>
<ellipse fill="none" stroke="black" cx="27" cy="-18" rx="27" ry="18"/>
<text text-anchor="middle" x="27" y="-14.3" font-family="Times,serif" font-size="14.00">A_1</text>
</g>
<!-- A_0&#45;&gt;A_1 -->
<g id="edge5" class="edge"><title>A_0&#45;&gt;A_1</title>
<path fill="none" stroke="black" d="M19.9547,-92.2336C16.2358,-81.3817 12.847,-66.918 15,-54 15.4851,-51.0893 16.1825,-48.0962 17.0004,-45.144"/>
<polygon fill="black" stroke="black" points="20.3903,-46.0349 20.1119,-35.4437 13.7248,-43.8968 20.3903,-46.0349"/>
<text text-anchor="middle" x="18.5" y="-58.3" font-family="Times,serif" font-size="14.00">a</text>
</g>
<!-- A_1&#45;&gt;A_0 -->
<g id="edge6" class="edge"><title>A_1&#45;&gt;A_0</title>
<path fill="none" stroke="black" d="M27,-36.2996C27,-49.1103 27,-66.823 27,-81.5573"/>
<polygon fill="black" stroke="black" points="23.5001,-81.6471 27,-91.6471 30.5001,-81.6471 23.5001,-81.6471"/>
<text text-anchor="middle" x="30.5" y="-58.3" font-family="Times,serif" font-size="14.00">ε</text>
</g>
<!-- A_2 -->
<g id="node7" class="node"><title>A_2</title>
<ellipse fill="none" stroke="black" cx="99" cy="-202" rx="27" ry="18"/>
<text text-anchor="middle" x="99" y="-198.3" font-family="Times,serif" font-size="14.00">A_2</text>
</g>
<!-- A_f -->
<g id="node8" class="node"><title>A_f</title>
<ellipse fill="none" stroke="black" cx="129" cy="-290" rx="27" ry="18"/>
<text text-anchor="middle" x="129" y="-286.3" font-family="Times,serif" font-size="14.00">A_f</text>
</g>
<!-- A_2&#45;&gt;A_f -->
<g id="edge7" class="edge"><title>A_2&#45;&gt;A_f</title>
<path fill="none" stroke="black" d="M104.813,-219.663C109.044,-231.793 114.862,-248.47 119.731,-262.429"/>
<polygon fill="black" stroke="black" points="116.474,-263.72 123.073,-272.009 123.084,-261.414 116.474,-263.72"/>
<text text-anchor="middle" x="119.5" y="-242.3" font-family="Times,serif" font-size="14.00">ε</text>
</g>
<!-- A_f&#45;&gt;S_2 -->
<g id="edge8" class="edge"><title>A_f&#45;&gt;S_2</title>
<path fill="none" stroke="black" d="M137.098,-272.418C143.18,-259.966 151.618,-242.687 158.554,-228.484"/>
<polygon fill="black" stroke="black" points="161.826,-229.761 163.069,-219.239 155.536,-226.689 161.826,-229.761"/>
<text text-anchor="middle" x="156.5" y="-242.3" font-family="Times,serif" font-size="14.00">ε</text>
</g>
<!-- A_f&#45;&gt;A_2 -->
<g id="edge9" class="edge"><title>A_f&#45;&gt;A_2</title>
<path fill="none" stroke="black" d="M114.705,-274.542C109.776,-268.654 104.796,-261.476 102,-254 99.223,-246.575 98.0193,-238.119 97.6289,-230.256"/>
<polygon fill="black" stroke="black" points="101.127,-230.019 97.5293,-220.054 94.1272,-230.088 101.127,-230.019"/>
<text text-anchor="middle" x="105.5" y="-242.3" font-family="Times,serif" font-size="14.00">ε</text>
</g>
</g>
</svg>
