<?xml version="1.0" encoding="UTF-8" standalone="no"?>
<!DOCTYPE svg PUBLIC "-//W3C//DTD SVG 1.1//EN"
 "http://www.w3.org/Graphics/SVG/1.1/DTD/svg11.dtd">
<!-- Generated by graphviz version 2.36.0 (20140111.2315)
 -->
<!-- Title: rgfsa Pages: 1 -->
<svg width="120pt" height="140pt"
 viewBox="0.00 0.00 120.00 140.00" xmlns="http://www.w3.org/2000/svg" xmlns:xlink="http://www.w3.org/1999/xlink">
<g id="graph0" class="graph" transform="scale(1 1) rotate(0) translate(4 136)">
<title>rgfsa</title>
<polygon fill="white" stroke="none" points="-4,4 -4,-136 116,-136 116,4 -4,4"/>
<!-- S -->
<g id="node1" class="node"><title>S</title>
<ellipse fill="none" stroke="black" cx="31" cy="-114" rx="27" ry="18"/>
<text text-anchor="middle" x="31" y="-110.3" font-family="Times,serif" font-size="14.00">S</text>
</g>
<!-- A -->
<g id="node2" class="node"><title>A</title>
<ellipse fill="none" stroke="black" cx="31" cy="-22" rx="27" ry="18"/>
<ellipse fill="none" stroke="black" cx="31" cy="-22" rx="31" ry="22"/>
<text text-anchor="middle" x="31" y="-18.3" font-family="Times,serif" font-size="14.00">A</text>
</g>
<!-- S&#45;&gt;A -->
<g id="edge1" class="edge"><title>S&#45;&gt;A</title>
<path fill="none" stroke="black" d="M31,-95.6471C31,-83.9242 31,-68.1144 31,-54.2369"/>
<polygon fill="black" stroke="black" points="34.5001,-54.101 31,-44.101 27.5001,-54.101 34.5001,-54.101"/>
<text text-anchor="middle" x="34.5" y="-66.3" font-family="Times,serif" font-size="14.00">a</text>
</g>
<!-- A&#45;&gt;A -->
<g id="edge2" class="edge"><title>A&#45;&gt;A</title>
<path fill="none" stroke="black" d="M61.625,-26.5C71.8333,-26.5 80,-25 80,-22 80,-20.125 76.8099,-18.8359 71.925,-18.1328"/>
<polygon fill="black" stroke="black" points="71.8208,-14.6199 61.625,-17.5 71.3915,-21.6067 71.8208,-14.6199"/>
<text text-anchor="middle" x="83.5" y="-18.3" font-family="Times,serif" font-size="14.00">a</text>
</g>
<!-- A&#45;&gt;A -->
<g id="edge3" class="edge"><title>A&#45;&gt;A</title>
<path fill="none" stroke="black" d="M59.9244,-30.2068C79.219,-32.5168 98,-29.7812 98,-22 98,-15.6169 85.362,-12.6292 70.1696,-13.0367"/>
<polygon fill="black" stroke="black" points="69.6394,-9.56621 59.9244,-13.7932 70.155,-16.5472 69.6394,-9.56621"/>
<text text-anchor="middle" x="101.5" y="-18.3" font-family="Times,serif" font-size="14.00">ε</text>
</g>
</g>
</svg>
