<?xml version="1.0" encoding="UTF-8" standalone="no"?>
<!DOCTYPE svg PUBLIC "-//W3C//DTD SVG 1.1//EN"
 "http://www.w3.org/Graphics/SVG/1.1/DTD/svg11.dtd">
<!-- Generated by graphviz version 2.36.0 (20140111.2315)
 -->
<!-- Title: rgfsa Pages: 1 -->
<svg width="205pt" height="492pt"
 viewBox="0.00 0.00 205.00 492.00" xmlns="http://www.w3.org/2000/svg" xmlns:xlink="http://www.w3.org/1999/xlink">
<g id="graph0" class="graph" transform="scale(1 1) rotate(0) translate(4 488)">
<title>rgfsa</title>
<polygon fill="white" stroke="none" points="-4,4 -4,-488 201,-488 201,4 -4,4"/>
<!-- S_0 -->
<g id="node1" class="node"><title>S_0</title>
<ellipse fill="none" stroke="black" cx="57" cy="-466" rx="27" ry="18"/>
<text text-anchor="middle" x="57" y="-462.3" font-family="Times,serif" font-size="14.00">S_0</text>
</g>
<!-- S_1 -->
<g id="node2" class="node"><title>S_1</title>
<ellipse fill="none" stroke="black" cx="57" cy="-378" rx="27" ry="18"/>
<text text-anchor="middle" x="57" y="-374.3" font-family="Times,serif" font-size="14.00">S_1</text>
</g>
<!-- S_0&#45;&gt;S_1 -->
<g id="edge1" class="edge"><title>S_0&#45;&gt;S_1</title>
<path fill="none" stroke="black" d="M57,-447.597C57,-435.746 57,-419.817 57,-406.292"/>
<polygon fill="black" stroke="black" points="60.5001,-406.084 57,-396.084 53.5001,-406.084 60.5001,-406.084"/>
<text text-anchor="middle" x="60.5" y="-418.3" font-family="Times,serif" font-size="14.00">a</text>
</g>
<!-- A_0 -->
<g id="node5" class="node"><title>A_0</title>
<ellipse fill="none" stroke="black" cx="57" cy="-290" rx="27" ry="18"/>
<text text-anchor="middle" x="57" y="-286.3" font-family="Times,serif" font-size="14.00">A_0</text>
</g>
<!-- S_1&#45;&gt;A_0 -->
<g id="edge2" class="edge"><title>S_1&#45;&gt;A_0</title>
<path fill="none" stroke="black" d="M57,-359.597C57,-347.746 57,-331.817 57,-318.292"/>
<polygon fill="black" stroke="black" points="60.5001,-318.084 57,-308.084 53.5001,-318.084 60.5001,-318.084"/>
<text text-anchor="middle" x="60.5" y="-330.3" font-family="Times,serif" font-size="14.00">ε</text>
</g>
<!-- S_2 -->
<g id="node3" class="node"><title>S_2</title>
<ellipse fill="none" stroke="black" cx="141" cy="-114" rx="27" ry="18"/>
<text text-anchor="middle" x="141" y="-110.3" font-family="Times,serif" font-size="14.00">S_2</text>
</g>
<!-- S_f -->
<g id="node4" class="node"><title>S_f</title>
<ellipse fill="none" stroke="black" cx="141" cy="-22" rx="27" ry="18"/>
<ellipse fill="none" stroke="black" cx="141" cy="-22" rx="31" ry="22"/>
<text text-anchor="middle" x="141" y="-18.3" font-family="Times,serif" font-size="14.00">S_f</text>
</g>
<!-- S_2&#45;&gt;S_f -->
<g id="edge3" class="edge"><title>S_2&#45;&gt;S_f</title>
<path fill="none" stroke="black" d="M141,-95.6471C141,-83.9242 141,-68.1144 141,-54.2369"/>
<polygon fill="black" stroke="black" points="144.5,-54.101 141,-44.101 137.5,-54.101 144.5,-54.101"/>
<text text-anchor="middle" x="144.5" y="-66.3" font-family="Times,serif" font-size="14.00">ε</text>
</g>
<!-- S_f&#45;&gt;S_f -->
<g id="edge4" class="edge"><title>S_f&#45;&gt;S_f</title>
<path fill="none" stroke="black" d="M169.689,-30.9648C180.781,-31.3633 190,-28.375 190,-22 190,-17.7168 185.838,-14.9624 179.743,-13.7368"/>
<polygon fill="black" stroke="black" points="179.908,-10.2399 169.689,-13.0352 179.421,-17.223 179.908,-10.2399"/>
<text text-anchor="middle" x="193.5" y="-18.3" font-family="Times,serif" font-size="14.00">ε</text>
</g>
<!-- A_1 -->
<g id="node6" class="node"><title>A_1</title>
<ellipse fill="none" stroke="black" cx="27" cy="-202" rx="27" ry="18"/>
<text text-anchor="middle" x="27" y="-198.3" font-family="Times,serif" font-size="14.00">A_1</text>
</g>
<!-- A_0&#45;&gt;A_1 -->
<g id="edge5" class="edge"><title>A_0&#45;&gt;A_1</title>
<path fill="none" stroke="black" d="M42.7047,-274.542C37.7763,-268.654 32.796,-261.476 30,-254 27.223,-246.575 26.0193,-238.119 25.6289,-230.256"/>
<polygon fill="black" stroke="black" points="29.1269,-230.019 25.5293,-220.054 22.1272,-230.088 29.1269,-230.019"/>
<text text-anchor="middle" x="33.5" y="-242.3" font-family="Times,serif" font-size="14.00">a</text>
</g>
<!-- A_f -->
<g id="node8" class="node"><title>A_f</title>
<ellipse fill="none" stroke="black" cx="99" cy="-202" rx="27" ry="18"/>
<text text-anchor="middle" x="99" y="-198.3" font-family="Times,serif" font-size="14.00">A_f</text>
</g>
<!-- A_0&#45;&gt;A_f -->
<g id="edge6" class="edge"><title>A_0&#45;&gt;A_f</title>
<path fill="none" stroke="black" d="M65.098,-272.418C71.1795,-259.966 79.618,-242.687 86.5545,-228.484"/>
<polygon fill="black" stroke="black" points="89.8259,-229.761 91.0693,-219.239 83.5359,-226.689 89.8259,-229.761"/>
<text text-anchor="middle" x="84.5" y="-242.3" font-family="Times,serif" font-size="14.00">ε</text>
</g>
<!-- A_1&#45;&gt;A_0 -->
<g id="edge7" class="edge"><title>A_1&#45;&gt;A_0</title>
<path fill="none" stroke="black" d="M32.8126,-219.663C37.044,-231.793 42.8618,-248.47 47.7312,-262.429"/>
<polygon fill="black" stroke="black" points="44.4745,-263.72 51.073,-272.009 51.0839,-261.414 44.4745,-263.72"/>
<text text-anchor="middle" x="48.5" y="-242.3" font-family="Times,serif" font-size="14.00">ε</text>
</g>
<!-- A_2 -->
<g id="node7" class="node"><title>A_2</title>
<ellipse fill="none" stroke="black" cx="69" cy="-114" rx="27" ry="18"/>
<text text-anchor="middle" x="69" y="-110.3" font-family="Times,serif" font-size="14.00">A_2</text>
</g>
<!-- A_2&#45;&gt;A_f -->
<g id="edge8" class="edge"><title>A_2&#45;&gt;A_f</title>
<path fill="none" stroke="black" d="M74.8126,-131.663C79.044,-143.793 84.8618,-160.47 89.7312,-174.429"/>
<polygon fill="black" stroke="black" points="86.4745,-175.72 93.073,-184.009 93.0839,-173.414 86.4745,-175.72"/>
<text text-anchor="middle" x="89.5" y="-154.3" font-family="Times,serif" font-size="14.00">ε</text>
</g>
<!-- A_f&#45;&gt;S_2 -->
<g id="edge9" class="edge"><title>A_f&#45;&gt;S_2</title>
<path fill="none" stroke="black" d="M107.098,-184.418C113.18,-171.966 121.618,-154.687 128.554,-140.484"/>
<polygon fill="black" stroke="black" points="131.826,-141.761 133.069,-131.239 125.536,-138.689 131.826,-141.761"/>
<text text-anchor="middle" x="126.5" y="-154.3" font-family="Times,serif" font-size="14.00">ε</text>
</g>
<!-- A_f&#45;&gt;A_2 -->
<g id="edge10" class="edge"><title>A_f&#45;&gt;A_2</title>
<path fill="none" stroke="black" d="M84.7047,-186.542C79.7763,-180.654 74.796,-173.476 72,-166 69.223,-158.575 68.0193,-150.119 67.6289,-142.256"/>
<polygon fill="black" stroke="black" points="71.1269,-142.019 67.5293,-132.054 64.1272,-142.088 71.1269,-142.019"/>
<text text-anchor="middle" x="75.5" y="-154.3" font-family="Times,serif" font-size="14.00">ε</text>
</g>
</g>
</svg>
