<?xml version="1.0" encoding="UTF-8" standalone="no"?>
<!DOCTYPE svg PUBLIC "-//W3C//DTD SVG 1.1//EN"
 "http://www.w3.org/Graphics/SVG/1.1/DTD/svg11.dtd">
<!-- Generated by graphviz version 2.36.0 (20140111.2315)
 -->
<!-- Title: flow Pages: 1 -->
<svg width="565pt" height="1930pt"
 viewBox="0.00 0.00 565.00 1930.00" xmlns="http://www.w3.org/2000/svg" xmlns:xlink="http://www.w3.org/1999/xlink">
<g id="graph0" class="graph" transform="scale(1 1) rotate(0) translate(4 1926)">
<title>flow</title>
<polygon fill="white" stroke="none" points="-4,4 -4,-1926 561,-1926 561,4 -4,4"/>
<!-- a -->
<g id="node1" class="node"><title>a</title>
<polygon fill="none" stroke="black" points="271,-1922 217,-1922 217,-1886 271,-1886 271,-1922"/>
<text text-anchor="middle" x="244" y="-1900.3" font-family="Times,serif" font-size="14.00">a.ixml</text>
</g>
<!-- parseixml -->
<g id="node18" class="node"><title>parseixml</title>
<ellipse fill="none" stroke="black" cx="244" cy="-1830" rx="84.2388" ry="18"/>
<text text-anchor="middle" x="244" y="-1826.3" font-family="Times,serif" font-size="14.00">ixml&#45;to&#45;xml&#45;manual</text>
</g>
<!-- a&#45;&gt;parseixml -->
<g id="edge1" class="edge"><title>a&#45;&gt;parseixml</title>
<path fill="none" stroke="black" d="M244,-1885.94C244,-1877.81 244,-1867.88 244,-1858.7"/>
<polygon fill="black" stroke="black" points="247.5,-1858.44 244,-1848.44 240.5,-1858.44 247.5,-1858.44"/>
</g>
<!-- axml -->
<g id="node2" class="node"><title>axml</title>
<polygon fill="none" stroke="black" points="282.25,-1774 205.75,-1774 205.75,-1738 282.25,-1738 282.25,-1774"/>
<text text-anchor="middle" x="244" y="-1752.3" font-family="Times,serif" font-size="14.00">a.ixml.xml</text>
</g>
<!-- rksubset2 -->
<g id="node19" class="node"><title>rksubset2</title>
<ellipse fill="none" stroke="black" cx="107" cy="-1673" rx="60.1672" ry="18"/>
<text text-anchor="middle" x="107" y="-1669.3" font-family="Times,serif" font-size="14.00">rk&#45;subset k=2</text>
</g>
<!-- axml&#45;&gt;rksubset2 -->
<g id="edge3" class="edge"><title>axml&#45;&gt;rksubset2</title>
<path fill="none" stroke="black" d="M214.946,-1737.82C193.589,-1725.19 164.472,-1707.98 141.86,-1694.61"/>
<polygon fill="black" stroke="black" points="143.622,-1691.59 133.233,-1689.51 140.059,-1697.61 143.622,-1691.59"/>
</g>
<!-- rksubset5 -->
<g id="node20" class="node"><title>rksubset5</title>
<ellipse fill="none" stroke="black" cx="381" cy="-1673" rx="60.1672" ry="18"/>
<text text-anchor="middle" x="381" y="-1669.3" font-family="Times,serif" font-size="14.00">rk&#45;subset k=5</text>
</g>
<!-- axml&#45;&gt;rksubset5 -->
<g id="edge5" class="edge"><title>axml&#45;&gt;rksubset5</title>
<path fill="none" stroke="black" d="M273.054,-1737.82C294.411,-1725.19 323.528,-1707.98 346.14,-1694.61"/>
<polygon fill="black" stroke="black" points="347.941,-1697.61 354.767,-1689.51 344.378,-1691.59 347.941,-1697.61"/>
</g>
<!-- r0supersetS -->
<g id="node21" class="node"><title>r0supersetS</title>
<ellipse fill="none" stroke="black" cx="244" cy="-1673" rx="58.5343" ry="26.7407"/>
<text text-anchor="middle" x="244" y="-1676.8" font-family="Times,serif" font-size="14.00">R0&#45;superset</text>
<text text-anchor="middle" x="244" y="-1661.8" font-family="Times,serif" font-size="14.00">start=&#39;S&#39;</text>
</g>
<!-- axml&#45;&gt;r0supersetS -->
<g id="edge13" class="edge"><title>axml&#45;&gt;r0supersetS</title>
<path fill="none" stroke="black" d="M244,-1737.82C244,-1729.77 244,-1719.86 244,-1710.27"/>
<polygon fill="black" stroke="black" points="247.5,-1710.09 244,-1700.09 240.5,-1710.09 247.5,-1710.09"/>
</g>
<!-- u5 -->
<g id="node3" class="node"><title>u5</title>
<polygon fill="none" stroke="black" points="434.25,-1608 339.75,-1608 339.75,-1572 434.25,-1572 434.25,-1608"/>
<text text-anchor="middle" x="387" y="-1586.3" font-family="Times,serif" font-size="14.00">a.u5.ixml.xml</text>
</g>
<!-- rksimplifier -->
<g id="node22" class="node"><title>rksimplifier</title>
<ellipse fill="none" stroke="black" cx="419" cy="-1452" rx="114.888" ry="48.1667"/>
<text text-anchor="middle" x="419" y="-1470.8" font-family="Times,serif" font-size="14.00">grammar&#45;pipeline&#45;handler</text>
<text text-anchor="middle" x="419" y="-1455.8" font-family="Times,serif" font-size="14.00">stepsfile=</text>
<text text-anchor="middle" x="419" y="-1440.8" font-family="Times,serif" font-size="14.00">sub.rk.simplifier</text>
<text text-anchor="middle" x="419" y="-1425.8" font-family="Times,serif" font-size="14.00">.pipeline.xml</text>
</g>
<!-- u5&#45;&gt;rksimplifier -->
<g id="edge7" class="edge"><title>u5&#45;&gt;rksimplifier</title>
<path fill="none" stroke="black" d="M391.053,-1571.78C394.73,-1556.15 400.363,-1532.21 405.611,-1509.9"/>
<polygon fill="black" stroke="black" points="409.024,-1510.68 407.908,-1500.14 402.21,-1509.07 409.024,-1510.68"/>
</g>
<!-- u2 -->
<g id="node4" class="node"><title>u2</title>
<polygon fill="none" stroke="black" points="137.25,-1554 42.75,-1554 42.75,-1518 137.25,-1518 137.25,-1554"/>
<text text-anchor="middle" x="90" y="-1532.3" font-family="Times,serif" font-size="14.00">a.u2.ixml.xml</text>
</g>
<!-- handknit -->
<g id="node32" class="node"><title>handknit</title>
<ellipse fill="none" stroke="red" stroke-dasharray="5,2" cx="138" cy="-1062" rx="64.0209" ry="26.7407"/>
<text text-anchor="middle" x="138" y="-1065.8" font-family="Times,serif" font-size="14.00">Knit together</text>
<text text-anchor="middle" x="138" y="-1050.8" font-family="Times,serif" font-size="14.00">by hand</text>
</g>
<!-- u2&#45;&gt;handknit -->
<g id="edge20" class="edge"><title>u2&#45;&gt;handknit</title>
<path fill="none" stroke="red" stroke-dasharray="5,2" d="M88.4575,-1517.58C86.1328,-1489.79 82,-1433.67 82,-1386 82,-1386 82,-1386 82,-1165 82,-1139.48 95.6324,-1114.32 109.445,-1095.36"/>
<polygon fill="red" stroke="red" points="112.256,-1097.45 115.545,-1087.38 106.694,-1093.2 112.256,-1097.45"/>
</g>
<!-- u5clean -->
<g id="node5" class="node"><title>u5clean</title>
<polygon fill="none" stroke="black" points="483,-1365 355,-1365 355,-1329 483,-1329 483,-1365"/>
<text text-anchor="middle" x="419" y="-1343.3" font-family="Times,serif" font-size="14.00">a.u5.clean.ixml.xml</text>
</g>
<!-- r0supersetfsa5 -->
<g id="node25" class="node"><title>r0supersetfsa5</title>
<ellipse fill="none" stroke="black" cx="419" cy="-1249" rx="68.3838" ry="26.7407"/>
<text text-anchor="middle" x="419" y="-1252.8" font-family="Times,serif" font-size="14.00">R0&#45;superset</text>
<text text-anchor="middle" x="419" y="-1237.8" font-family="Times,serif" font-size="14.00">start=&#39;#inherit&#39;</text>
</g>
<!-- u5clean&#45;&gt;r0supersetfsa5 -->
<g id="edge9" class="edge"><title>u5clean&#45;&gt;r0supersetfsa5</title>
<path fill="none" stroke="black" d="M419,-1328.84C419,-1317.03 419,-1300.91 419,-1286.33"/>
<polygon fill="black" stroke="black" points="422.5,-1286.06 419,-1276.06 415.5,-1286.06 422.5,-1286.06"/>
</g>
<!-- so0 -->
<g id="node6" class="node"><title>so0</title>
<polygon fill="none" stroke="black" points="298.25,-1608 189.75,-1608 189.75,-1572 298.25,-1572 298.25,-1608"/>
<text text-anchor="middle" x="244" y="-1586.3" font-family="Times,serif" font-size="14.00">a.S.O0.ixml.xml</text>
</g>
<!-- gph -->
<g id="node23" class="node"><title>gph</title>
<ellipse fill="none" stroke="black" cx="216" cy="-1249" rx="105.411" ry="18"/>
<text text-anchor="middle" x="216" y="-1245.3" font-family="Times,serif" font-size="14.00">grammar&#45;pipeline&#45;handler</text>
</g>
<!-- so0&#45;&gt;gph -->
<g id="edge18" class="edge"><title>so0&#45;&gt;gph</title>
<path fill="none" stroke="black" d="M249.419,-1571.91C263.224,-1525.32 295.968,-1392.98 257,-1294 254.213,-1286.92 249.69,-1280.31 244.645,-1274.46"/>
<polygon fill="black" stroke="black" points="246.984,-1271.84 237.557,-1267.01 241.911,-1276.67 246.984,-1271.84"/>
</g>
<!-- makepipe -->
<g id="node33" class="node"><title>makepipe</title>
<ellipse fill="none" stroke="red" stroke-dasharray="5,2" cx="179" cy="-1452" rx="68.3838" ry="26.7407"/>
<text text-anchor="middle" x="179" y="-1455.8" font-family="Times,serif" font-size="14.00">Make pipeline</text>
<text text-anchor="middle" x="179" y="-1440.8" font-family="Times,serif" font-size="14.00">for a.S.o0</text>
</g>
<!-- so0&#45;&gt;makepipe -->
<g id="edge15" class="edge"><title>so0&#45;&gt;makepipe</title>
<path fill="none" stroke="red" stroke-dasharray="5,2" d="M235.768,-1571.78C225.745,-1550.8 208.567,-1514.86 195.726,-1488"/>
<polygon fill="red" stroke="red" points="198.854,-1486.42 191.384,-1478.91 192.538,-1489.44 198.854,-1486.42"/>
</g>
<!-- so0simpip -->
<g id="node7" class="node"><title>so0simpip</title>
<polygon fill="none" stroke="black" points="246.25,-1366 111.75,-1366 111.75,-1328 246.25,-1328 246.25,-1366"/>
<text text-anchor="middle" x="179" y="-1350.8" font-family="Times,serif" font-size="14.00">a.S.O0.simplification</text>
<text text-anchor="middle" x="179" y="-1335.8" font-family="Times,serif" font-size="14.00">.pipeline.xml</text>
</g>
<!-- so0simpip&#45;&gt;gph -->
<g id="edge17" class="edge"><title>so0simpip&#45;&gt;gph</title>
<path fill="none" stroke="black" d="M185.959,-1327.94C191.541,-1313.46 199.458,-1292.92 205.762,-1276.56"/>
<polygon fill="black" stroke="black" points="209.114,-1277.6 209.444,-1267.01 202.582,-1275.08 209.114,-1277.6"/>
<text text-anchor="middle" x="226" y="-1298.3" font-family="Times,serif" font-size="14.00">stepsfile=</text>
</g>
<!-- so0sim -->
<g id="node8" class="node"><title>so0sim</title>
<polygon fill="none" stroke="black" points="285.25,-1184 116.75,-1184 116.75,-1148 285.25,-1148 285.25,-1184"/>
<text text-anchor="middle" x="201" y="-1162.3" font-family="Times,serif" font-size="14.00">a.S.O0.simplified.ixml.xml</text>
</g>
<!-- so0sim&#45;&gt;handknit -->
<g id="edge21" class="edge"><title>so0sim&#45;&gt;handknit</title>
<path fill="none" stroke="red" stroke-dasharray="5,2" d="M190.313,-1147.7C181.763,-1133.85 169.51,-1114.02 159.012,-1097.02"/>
<polygon fill="red" stroke="red" points="161.944,-1095.11 153.711,-1088.44 155.988,-1098.78 161.944,-1095.11"/>
</g>
<!-- ao2 -->
<g id="node9" class="node"><title>ao2</title>
<polygon fill="none" stroke="black" points="187,-976 89,-976 89,-940 187,-940 187,-976"/>
<text text-anchor="middle" x="138" y="-954.3" font-family="Times,serif" font-size="14.00">a.O2.ixml.xml</text>
</g>
<!-- r0supersetfsa2 -->
<g id="node24" class="node"><title>r0supersetfsa2</title>
<ellipse fill="none" stroke="black" cx="138" cy="-854" rx="68.3838" ry="26.7407"/>
<text text-anchor="middle" x="138" y="-857.8" font-family="Times,serif" font-size="14.00">R0&#45;superset</text>
<text text-anchor="middle" x="138" y="-842.8" font-family="Times,serif" font-size="14.00">start=&#39;#inherit&#39;</text>
</g>
<!-- ao2&#45;&gt;r0supersetfsa2 -->
<g id="edge23" class="edge"><title>ao2&#45;&gt;r0supersetfsa2</title>
<path fill="none" stroke="black" d="M138,-939.697C138,-926.549 138,-907.992 138,-891.598"/>
<polygon fill="black" stroke="black" points="141.5,-891.216 138,-881.216 134.5,-891.216 141.5,-891.216"/>
</g>
<!-- au5fsa -->
<g id="node10" class="node"><title>au5fsa</title>
<polygon fill="none" stroke="black" points="461.25,-1184 376.75,-1184 376.75,-1148 461.25,-1148 461.25,-1184"/>
<text text-anchor="middle" x="419" y="-1162.3" font-family="Times,serif" font-size="14.00">a.u5.fsa.xml</text>
</g>
<!-- mklego5 -->
<g id="node27" class="node"><title>mklego5</title>
<ellipse fill="none" stroke="black" cx="419" cy="-1062" rx="114.888" ry="48.1667"/>
<text text-anchor="middle" x="419" y="-1080.8" font-family="Times,serif" font-size="14.00">grammar&#45;pipeline&#45;handler</text>
<text text-anchor="middle" x="419" y="-1065.8" font-family="Times,serif" font-size="14.00">stepsfile=</text>
<text text-anchor="middle" x="419" y="-1050.8" font-family="Times,serif" font-size="14.00">a.regular&#45;approx&#45;to&#45;dfsa</text>
<text text-anchor="middle" x="419" y="-1035.8" font-family="Times,serif" font-size="14.00">.pipeline.xml</text>
</g>
<!-- au5fsa&#45;&gt;mklego5 -->
<g id="edge11" class="edge"><title>au5fsa&#45;&gt;mklego5</title>
<path fill="none" stroke="black" d="M419,-1147.7C419,-1139.94 419,-1130.3 419,-1120.33"/>
<polygon fill="black" stroke="black" points="422.5,-1120.31 419,-1110.31 415.5,-1120.31 422.5,-1120.31"/>
</g>
<!-- ao2fsa -->
<g id="node11" class="node"><title>ao2fsa</title>
<polygon fill="none" stroke="black" points="182,-747 94,-747 94,-711 182,-711 182,-747"/>
<text text-anchor="middle" x="138" y="-725.3" font-family="Times,serif" font-size="14.00">a.O2.fsa.xml</text>
</g>
<!-- mklego2 -->
<g id="node26" class="node"><title>mklego2</title>
<ellipse fill="none" stroke="black" cx="138" cy="-604" rx="114.888" ry="48.1667"/>
<text text-anchor="middle" x="138" y="-622.8" font-family="Times,serif" font-size="14.00">grammar&#45;pipeline&#45;handler</text>
<text text-anchor="middle" x="138" y="-607.8" font-family="Times,serif" font-size="14.00">stepsfile=</text>
<text text-anchor="middle" x="138" y="-592.8" font-family="Times,serif" font-size="14.00">a.regular&#45;approx&#45;to&#45;dfsa</text>
<text text-anchor="middle" x="138" y="-577.8" font-family="Times,serif" font-size="14.00">.pipeline.xml</text>
</g>
<!-- ao2fsa&#45;&gt;mklego2 -->
<g id="edge25" class="edge"><title>ao2fsa&#45;&gt;mklego2</title>
<path fill="none" stroke="black" d="M138,-710.897C138,-698.206 138,-680.113 138,-662.465"/>
<polygon fill="black" stroke="black" points="141.5,-662.17 138,-652.17 134.5,-662.17 141.5,-662.17"/>
</g>
<!-- au5lego -->
<g id="node12" class="node"><title>au5lego</title>
<polygon fill="none" stroke="black" points="470.25,-976 367.75,-976 367.75,-940 470.25,-940 470.25,-976"/>
<text text-anchor="middle" x="419" y="-954.3" font-family="Times,serif" font-size="14.00">a.u5.tclego.xml</text>
</g>
<!-- mkrecipepos -->
<g id="node28" class="node"><title>mkrecipepos</title>
<ellipse fill="none" stroke="black" cx="419" cy="-854" rx="138.389" ry="48.1667"/>
<text text-anchor="middle" x="419" y="-872.8" font-family="Times,serif" font-size="14.00">tclego&#45;to&#45;tcrecipes</text>
<text text-anchor="middle" x="419" y="-857.8" font-family="Times,serif" font-size="14.00">coverage=</text>
<text text-anchor="middle" x="419" y="-842.8" font-family="Times,serif" font-size="14.00">{state, arc, state&#45;final, arc&#45;final}</text>
<text text-anchor="middle" x="419" y="-827.8" font-family="Times,serif" font-size="14.00">polarity=positive</text>
</g>
<!-- au5lego&#45;&gt;mkrecipepos -->
<g id="edge27" class="edge"><title>au5lego&#45;&gt;mkrecipepos</title>
<path fill="none" stroke="black" d="M419,-939.697C419,-931.939 419,-922.297 419,-912.328"/>
<polygon fill="black" stroke="black" points="422.5,-912.307 419,-902.307 415.5,-912.307 422.5,-912.307"/>
</g>
<!-- ao2lego -->
<g id="node13" class="node"><title>ao2lego</title>
<polygon fill="none" stroke="black" points="191,-497 85,-497 85,-461 191,-461 191,-497"/>
<text text-anchor="middle" x="138" y="-475.3" font-family="Times,serif" font-size="14.00">a.O2.tclego.xml</text>
</g>
<!-- mkrecipeneg -->
<g id="node29" class="node"><title>mkrecipeneg</title>
<ellipse fill="none" stroke="black" cx="138" cy="-354" rx="138.389" ry="48.1667"/>
<text text-anchor="middle" x="138" y="-372.8" font-family="Times,serif" font-size="14.00">tclego&#45;to&#45;tcrecipes</text>
<text text-anchor="middle" x="138" y="-357.8" font-family="Times,serif" font-size="14.00">coverage=</text>
<text text-anchor="middle" x="138" y="-342.8" font-family="Times,serif" font-size="14.00">{state, arc, state&#45;final, arc&#45;final}</text>
<text text-anchor="middle" x="138" y="-327.8" font-family="Times,serif" font-size="14.00">polarity=negative</text>
</g>
<!-- ao2lego&#45;&gt;mkrecipeneg -->
<g id="edge31" class="edge"><title>ao2lego&#45;&gt;mkrecipeneg</title>
<path fill="none" stroke="black" d="M138,-460.897C138,-448.206 138,-430.113 138,-412.465"/>
<polygon fill="black" stroke="black" points="141.5,-412.17 138,-402.17 134.5,-412.17 141.5,-412.17"/>
</g>
<!-- au5recpos -->
<g id="node14" class="node"><title>au5recpos</title>
<polygon fill="none" stroke="black" points="517,-755.5 321,-755.5 321,-702.5 517,-702.5 517,-755.5"/>
<polygon fill="none" stroke="black" points="521,-759.5 317,-759.5 317,-698.5 521,-698.5 521,-759.5"/>
<polygon fill="none" stroke="black" points="525,-763.5 313,-763.5 313,-694.5 525,-694.5 525,-763.5"/>
<polygon fill="none" stroke="black" points="529,-767.5 309,-767.5 309,-690.5 529,-690.5 529,-767.5"/>
<text text-anchor="middle" x="419" y="-740.3" font-family="Times,serif" font-size="14.00">a.u5.tcrecipes.</text>
<text text-anchor="middle" x="419" y="-725.3" font-family="Times,serif" font-size="14.00">{state, arc, state&#45;final, arc&#45;final}</text>
<text text-anchor="middle" x="419" y="-710.3" font-family="Times,serif" font-size="14.00">.pos.xml</text>
</g>
<!-- recipetcpos -->
<g id="node30" class="node"><title>recipetcpos</title>
<ellipse fill="none" stroke="black" cx="419" cy="-604" rx="87.613" ry="18"/>
<text text-anchor="middle" x="419" y="-600.3" font-family="Times,serif" font-size="14.00">tcrecipes&#45;to&#45;testcases</text>
</g>
<!-- au5recpos&#45;&gt;recipetcpos -->
<g id="edge29" class="edge"><title>au5recpos&#45;&gt;recipetcpos</title>
<path fill="none" stroke="black" d="M419,-690.428C419,-671.766 419,-649.623 419,-632.557"/>
<polygon fill="black" stroke="black" points="422.5,-632.163 419,-622.163 415.5,-632.163 422.5,-632.163"/>
</g>
<!-- ao2recneg -->
<g id="node15" class="node"><title>ao2recneg</title>
<polygon fill="none" stroke="black" points="236,-255.5 40,-255.5 40,-202.5 236,-202.5 236,-255.5"/>
<polygon fill="none" stroke="black" points="240,-259.5 36,-259.5 36,-198.5 240,-198.5 240,-259.5"/>
<polygon fill="none" stroke="black" points="244,-263.5 32,-263.5 32,-194.5 244,-194.5 244,-263.5"/>
<polygon fill="none" stroke="black" points="248,-267.5 28,-267.5 28,-190.5 248,-190.5 248,-267.5"/>
<text text-anchor="middle" x="138" y="-240.3" font-family="Times,serif" font-size="14.00">a.O2.tcrecipes.</text>
<text text-anchor="middle" x="138" y="-225.3" font-family="Times,serif" font-size="14.00">{state, arc, state&#45;final, arc&#45;final}</text>
<text text-anchor="middle" x="138" y="-210.3" font-family="Times,serif" font-size="14.00">.neg.xml</text>
</g>
<!-- recipetcneg -->
<g id="node31" class="node"><title>recipetcneg</title>
<ellipse fill="none" stroke="black" cx="138" cy="-134" rx="87.613" ry="18"/>
<text text-anchor="middle" x="138" y="-130.3" font-family="Times,serif" font-size="14.00">tcrecipes&#45;to&#45;testcases</text>
</g>
<!-- ao2recneg&#45;&gt;recipetcneg -->
<g id="edge33" class="edge"><title>ao2recneg&#45;&gt;recipetcneg</title>
<path fill="none" stroke="black" d="M138,-190.441C138,-180.98 138,-171.005 138,-162.164"/>
<polygon fill="black" stroke="black" points="141.5,-162.054 138,-152.054 134.5,-162.054 141.5,-162.054"/>
</g>
<!-- au5tcpos -->
<g id="node16" class="node"><title>au5tcpos</title>
<polygon fill="none" stroke="black" points="517,-505.5 321,-505.5 321,-452.5 517,-452.5 517,-505.5"/>
<polygon fill="none" stroke="black" points="521,-509.5 317,-509.5 317,-448.5 521,-448.5 521,-509.5"/>
<polygon fill="none" stroke="black" points="525,-513.5 313,-513.5 313,-444.5 525,-444.5 525,-513.5"/>
<polygon fill="none" stroke="black" points="529,-517.5 309,-517.5 309,-440.5 529,-440.5 529,-517.5"/>
<text text-anchor="middle" x="419" y="-490.3" font-family="Times,serif" font-size="14.00">a.u5.testcases.</text>
<text text-anchor="middle" x="419" y="-475.3" font-family="Times,serif" font-size="14.00">{state, arc, state&#45;final, arc&#45;final}</text>
<text text-anchor="middle" x="419" y="-460.3" font-family="Times,serif" font-size="14.00">.pos.xml</text>
</g>
<!-- ao2tcneg -->
<g id="node17" class="node"><title>ao2tcneg</title>
<polygon fill="none" stroke="black" points="236,-65.5 40,-65.5 40,-12.5 236,-12.5 236,-65.5"/>
<polygon fill="none" stroke="black" points="240,-69.5 36,-69.5 36,-8.5 240,-8.5 240,-69.5"/>
<polygon fill="none" stroke="black" points="244,-73.5 32,-73.5 32,-4.5 244,-4.5 244,-73.5"/>
<polygon fill="none" stroke="black" points="248,-77.5 28,-77.5 28,-0.5 248,-0.5 248,-77.5"/>
<text text-anchor="middle" x="138" y="-50.3" font-family="Times,serif" font-size="14.00">a.O2.testcases.</text>
<text text-anchor="middle" x="138" y="-35.3" font-family="Times,serif" font-size="14.00">{state, arc, state&#45;final, arc&#45;final}</text>
<text text-anchor="middle" x="138" y="-20.3" font-family="Times,serif" font-size="14.00">.neg.xml</text>
</g>
<!-- parseixml&#45;&gt;axml -->
<g id="edge2" class="edge"><title>parseixml&#45;&gt;axml</title>
<path fill="none" stroke="black" d="M244,-1811.94C244,-1803.81 244,-1793.88 244,-1784.7"/>
<polygon fill="black" stroke="black" points="247.5,-1784.44 244,-1774.44 240.5,-1784.44 247.5,-1784.44"/>
</g>
<!-- rksubset2&#45;&gt;u2 -->
<g id="edge4" class="edge"><title>rksubset2&#45;&gt;u2</title>
<path fill="none" stroke="black" d="M104.847,-1654.9C101.976,-1632.1 96.8603,-1591.48 93.4486,-1564.39"/>
<polygon fill="black" stroke="black" points="96.9113,-1563.87 92.1893,-1554.39 89.9662,-1564.74 96.9113,-1563.87"/>
</g>
<!-- rksubset5&#45;&gt;u5 -->
<g id="edge6" class="edge"><title>rksubset5&#45;&gt;u5</title>
<path fill="none" stroke="black" d="M382.272,-1654.82C383.06,-1644.19 384.088,-1630.31 384.985,-1618.2"/>
<polygon fill="black" stroke="black" points="388.481,-1618.38 385.729,-1608.15 381.5,-1617.87 388.481,-1618.38"/>
</g>
<!-- r0supersetS&#45;&gt;so0 -->
<g id="edge14" class="edge"><title>r0supersetS&#45;&gt;so0</title>
<path fill="none" stroke="black" d="M244,-1645.93C244,-1637.11 244,-1627.25 244,-1618.35"/>
<polygon fill="black" stroke="black" points="247.5,-1618.09 244,-1608.09 240.5,-1618.09 247.5,-1618.09"/>
</g>
<!-- rksimplifier&#45;&gt;u5clean -->
<g id="edge8" class="edge"><title>rksimplifier&#45;&gt;u5clean</title>
<path fill="none" stroke="black" d="M419,-1403.72C419,-1394.05 419,-1384.18 419,-1375.49"/>
<polygon fill="black" stroke="black" points="422.5,-1375.21 419,-1365.21 415.5,-1375.21 422.5,-1375.21"/>
</g>
<!-- gph&#45;&gt;so0sim -->
<g id="edge19" class="edge"><title>gph&#45;&gt;so0sim</title>
<path fill="none" stroke="black" d="M212.819,-1230.82C210.85,-1220.19 208.279,-1206.31 206.038,-1194.2"/>
<polygon fill="black" stroke="black" points="209.439,-1193.35 204.177,-1184.15 202.556,-1194.62 209.439,-1193.35"/>
</g>
<!-- r0supersetfsa2&#45;&gt;ao2fsa -->
<g id="edge24" class="edge"><title>r0supersetfsa2&#45;&gt;ao2fsa</title>
<path fill="none" stroke="black" d="M138,-826.915C138,-806.498 138,-778.18 138,-757.427"/>
<polygon fill="black" stroke="black" points="141.5,-757.346 138,-747.346 134.5,-757.346 141.5,-757.346"/>
</g>
<!-- r0supersetfsa5&#45;&gt;au5fsa -->
<g id="edge10" class="edge"><title>r0supersetfsa5&#45;&gt;au5fsa</title>
<path fill="none" stroke="black" d="M419,-1221.93C419,-1213.11 419,-1203.25 419,-1194.35"/>
<polygon fill="black" stroke="black" points="422.5,-1194.09 419,-1184.09 415.5,-1194.09 422.5,-1194.09"/>
</g>
<!-- mklego2&#45;&gt;ao2lego -->
<g id="edge26" class="edge"><title>mklego2&#45;&gt;ao2lego</title>
<path fill="none" stroke="black" d="M138,-555.797C138,-539.385 138,-521.535 138,-507.282"/>
<polygon fill="black" stroke="black" points="141.5,-507.167 138,-497.167 134.5,-507.167 141.5,-507.167"/>
</g>
<!-- mklego5&#45;&gt;au5lego -->
<g id="edge12" class="edge"><title>mklego5&#45;&gt;au5lego</title>
<path fill="none" stroke="black" d="M419,-1013.88C419,-1004.49 419,-994.913 419,-986.449"/>
<polygon fill="black" stroke="black" points="422.5,-986.418 419,-976.419 415.5,-986.419 422.5,-986.418"/>
</g>
<!-- mkrecipepos&#45;&gt;au5recpos -->
<g id="edge28" class="edge"><title>mkrecipepos&#45;&gt;au5recpos</title>
<path fill="none" stroke="black" d="M419,-805.797C419,-796.641 419,-787.038 419,-777.862"/>
<polygon fill="black" stroke="black" points="422.5,-777.729 419,-767.729 415.5,-777.73 422.5,-777.729"/>
</g>
<!-- mkrecipeneg&#45;&gt;ao2recneg -->
<g id="edge32" class="edge"><title>mkrecipeneg&#45;&gt;ao2recneg</title>
<path fill="none" stroke="black" d="M138,-305.797C138,-296.641 138,-287.038 138,-277.862"/>
<polygon fill="black" stroke="black" points="141.5,-277.729 138,-267.729 134.5,-277.73 141.5,-277.729"/>
</g>
<!-- recipetcpos&#45;&gt;au5tcpos -->
<g id="edge30" class="edge"><title>recipetcpos&#45;&gt;au5tcpos</title>
<path fill="none" stroke="black" d="M419,-585.897C419,-570.877 419,-548.29 419,-527.829"/>
<polygon fill="black" stroke="black" points="422.5,-527.688 419,-517.688 415.5,-527.688 422.5,-527.688"/>
</g>
<!-- recipetcneg&#45;&gt;ao2tcneg -->
<g id="edge34" class="edge"><title>recipetcneg&#45;&gt;ao2tcneg</title>
<path fill="none" stroke="black" d="M138,-115.942C138,-107.919 138,-97.9098 138,-87.8174"/>
<polygon fill="black" stroke="black" points="141.5,-87.768 138,-77.768 134.5,-87.768 141.5,-87.768"/>
</g>
<!-- handknit&#45;&gt;ao2 -->
<g id="edge22" class="edge"><title>handknit&#45;&gt;ao2</title>
<path fill="none" stroke="black" d="M138,-1035C138,-1020.18 138,-1001.62 138,-986.551"/>
<polygon fill="black" stroke="black" points="141.5,-986.299 138,-976.299 134.5,-986.299 141.5,-986.299"/>
</g>
<!-- makepipe&#45;&gt;so0simpip -->
<g id="edge16" class="edge"><title>makepipe&#45;&gt;so0simpip</title>
<path fill="none" stroke="red" stroke-dasharray="5,2" d="M179,-1425.01C179,-1410.24 179,-1391.72 179,-1376.55"/>
<polygon fill="red" stroke="red" points="182.5,-1376.19 179,-1366.19 175.5,-1376.19 182.5,-1376.19"/>
</g>
</g>
</svg>
