<?xml version="1.0" encoding="UTF-8" standalone="no"?>
<!DOCTYPE svg PUBLIC "-//W3C//DTD SVG 1.1//EN"
 "http://www.w3.org/Graphics/SVG/1.1/DTD/svg11.dtd">
<!-- Generated by graphviz version 2.36.0 (20140111.2315)
 -->
<!-- Title: flow Pages: 1 -->
<svg width="786pt" height="1930pt"
 viewBox="0.00 0.00 786.00 1930.00" xmlns="http://www.w3.org/2000/svg" xmlns:xlink="http://www.w3.org/1999/xlink">
<g id="graph0" class="graph" transform="scale(1 1) rotate(0) translate(4 1926)">
<title>flow</title>
<polygon fill="white" stroke="none" points="-4,4 -4,-1926 782,-1926 782,4 -4,4"/>
<!-- a -->
<g id="node1" class="node"><title>a</title>
<polygon fill="none" stroke="black" points="362,-1922 308,-1922 308,-1886 362,-1886 362,-1922"/>
<text text-anchor="middle" x="335" y="-1900.3" font-family="Times,serif" font-size="14.00">a.ixml</text>
</g>
<!-- parseixml -->
<g id="node25" class="node"><title>parseixml</title>
<ellipse fill="none" stroke="black" cx="335" cy="-1830" rx="84.2388" ry="18"/>
<text text-anchor="middle" x="335" y="-1826.3" font-family="Times,serif" font-size="14.00">ixml&#45;to&#45;xml&#45;manual</text>
</g>
<!-- a&#45;&gt;parseixml -->
<g id="edge1" class="edge"><title>a&#45;&gt;parseixml</title>
<path fill="none" stroke="black" d="M335,-1885.94C335,-1877.81 335,-1867.88 335,-1858.7"/>
<polygon fill="black" stroke="black" points="338.5,-1858.44 335,-1848.44 331.5,-1858.44 338.5,-1858.44"/>
</g>
<!-- axml -->
<g id="node2" class="node"><title>axml</title>
<polygon fill="none" stroke="black" points="373.25,-1774 296.75,-1774 296.75,-1738 373.25,-1738 373.25,-1774"/>
<text text-anchor="middle" x="335" y="-1752.3" font-family="Times,serif" font-size="14.00">a.ixml.xml</text>
</g>
<!-- rksubset2 -->
<g id="node26" class="node"><title>rksubset2</title>
<ellipse fill="none" stroke="black" cx="123" cy="-1673" rx="60.1672" ry="18"/>
<text text-anchor="middle" x="123" y="-1669.3" font-family="Times,serif" font-size="14.00">rk&#45;subset k=2</text>
</g>
<!-- axml&#45;&gt;rksubset2 -->
<g id="edge3" class="edge"><title>axml&#45;&gt;rksubset2</title>
<path fill="none" stroke="black" d="M296.608,-1740.33C260.419,-1726.5 206.184,-1705.78 167.982,-1691.19"/>
<polygon fill="black" stroke="black" points="169.227,-1687.92 158.636,-1687.62 166.728,-1694.45 169.227,-1687.92"/>
</g>
<!-- rksubset5 -->
<g id="node27" class="node"><title>rksubset5</title>
<ellipse fill="none" stroke="black" cx="404" cy="-1673" rx="60.1672" ry="18"/>
<text text-anchor="middle" x="404" y="-1669.3" font-family="Times,serif" font-size="14.00">rk&#45;subset k=5</text>
</g>
<!-- axml&#45;&gt;rksubset5 -->
<g id="edge5" class="edge"><title>axml&#45;&gt;rksubset5</title>
<path fill="none" stroke="black" d="M349.633,-1737.82C359.368,-1726.39 372.305,-1711.21 383.117,-1698.51"/>
<polygon fill="black" stroke="black" points="386.04,-1700.48 389.86,-1690.6 380.711,-1695.94 386.04,-1700.48"/>
</g>
<!-- r0supersetS -->
<g id="node28" class="node"><title>r0supersetS</title>
<ellipse fill="none" stroke="black" cx="267" cy="-1673" rx="58.5343" ry="26.7407"/>
<text text-anchor="middle" x="267" y="-1676.8" font-family="Times,serif" font-size="14.00">R0&#45;superset</text>
<text text-anchor="middle" x="267" y="-1661.8" font-family="Times,serif" font-size="14.00">start=&#39;S&#39;</text>
</g>
<!-- axml&#45;&gt;r0supersetS -->
<g id="edge13" class="edge"><title>axml&#45;&gt;r0supersetS</title>
<path fill="none" stroke="black" d="M320.579,-1737.82C312.799,-1728.55 302.944,-1716.82 293.813,-1705.94"/>
<polygon fill="black" stroke="black" points="296.444,-1703.63 287.333,-1698.22 291.082,-1708.13 296.444,-1703.63"/>
</g>
<!-- unroll -->
<g id="node39" class="node"><title>unroll</title>
<ellipse fill="none" stroke="black" cx="564" cy="-1673" rx="78.4642" ry="18"/>
<text text-anchor="middle" x="564" y="-1669.3" font-family="Times,serif" font-size="14.00">unroll&#45;occurrences</text>
</g>
<!-- axml&#45;&gt;unroll -->
<g id="edge35" class="edge"><title>axml&#45;&gt;unroll</title>
<path fill="none" stroke="black" d="M373.329,-1741.44C411.838,-1727.82 471.383,-1706.76 513.676,-1691.8"/>
<polygon fill="black" stroke="black" points="514.966,-1695.06 523.226,-1688.42 512.632,-1688.46 514.966,-1695.06"/>
</g>
<!-- u5 -->
<g id="node3" class="node"><title>u5</title>
<polygon fill="none" stroke="black" points="452.25,-1608 357.75,-1608 357.75,-1572 452.25,-1572 452.25,-1608"/>
<text text-anchor="middle" x="405" y="-1586.3" font-family="Times,serif" font-size="14.00">a.u5.ixml.xml</text>
</g>
<!-- rksimplifier -->
<g id="node29" class="node"><title>rksimplifier</title>
<ellipse fill="none" stroke="black" cx="409" cy="-1452" rx="114.888" ry="48.1667"/>
<text text-anchor="middle" x="409" y="-1470.8" font-family="Times,serif" font-size="14.00">grammar&#45;pipeline&#45;handler</text>
<text text-anchor="middle" x="409" y="-1455.8" font-family="Times,serif" font-size="14.00">stepsfile=</text>
<text text-anchor="middle" x="409" y="-1440.8" font-family="Times,serif" font-size="14.00">sub.rk.simplifier</text>
<text text-anchor="middle" x="409" y="-1425.8" font-family="Times,serif" font-size="14.00">.pipeline.xml</text>
</g>
<!-- u5&#45;&gt;rksimplifier -->
<g id="edge7" class="edge"><title>u5&#45;&gt;rksimplifier</title>
<path fill="none" stroke="black" d="M405.507,-1571.78C405.964,-1556.22 406.664,-1532.42 407.318,-1510.2"/>
<polygon fill="black" stroke="black" points="410.818,-1510.24 407.613,-1500.14 403.821,-1510.03 410.818,-1510.24"/>
</g>
<!-- u2 -->
<g id="node4" class="node"><title>u2</title>
<polygon fill="none" stroke="black" points="148.25,-1554 53.75,-1554 53.75,-1518 148.25,-1518 148.25,-1554"/>
<text text-anchor="middle" x="101" y="-1532.3" font-family="Times,serif" font-size="14.00">a.u2.ixml.xml</text>
</g>
<!-- handknit -->
<g id="node46" class="node"><title>handknit</title>
<ellipse fill="#ffeeee" stroke="red" stroke-dasharray="5,2" cx="138" cy="-1062" rx="64.0209" ry="26.7407"/>
<text text-anchor="middle" x="138" y="-1065.8" font-family="Times,serif" font-size="14.00">Knit together</text>
<text text-anchor="middle" x="138" y="-1050.8" font-family="Times,serif" font-size="14.00">by hand</text>
</g>
<!-- u2&#45;&gt;handknit -->
<g id="edge20" class="edge"><title>u2&#45;&gt;handknit</title>
<path fill="none" stroke="red" stroke-dasharray="5,2" d="M95.4085,-1517.78C86.9814,-1490.25 72,-1434.49 72,-1386 72,-1386 72,-1386 72,-1165 72,-1138.24 88.2112,-1112.95 104.565,-1094.25"/>
<polygon fill="red" stroke="red" points="107.354,-1096.38 111.536,-1086.65 102.196,-1091.65 107.354,-1096.38"/>
</g>
<!-- u5clean -->
<g id="node5" class="node"><title>u5clean</title>
<polygon fill="none" stroke="black" points="473,-1365 345,-1365 345,-1329 473,-1329 473,-1365"/>
<text text-anchor="middle" x="409" y="-1343.3" font-family="Times,serif" font-size="14.00">a.u5.clean.ixml.xml</text>
</g>
<!-- r0supersetfsa5 -->
<g id="node32" class="node"><title>r0supersetfsa5</title>
<ellipse fill="none" stroke="black" cx="409" cy="-1249" rx="68.3838" ry="26.7407"/>
<text text-anchor="middle" x="409" y="-1252.8" font-family="Times,serif" font-size="14.00">R0&#45;superset</text>
<text text-anchor="middle" x="409" y="-1237.8" font-family="Times,serif" font-size="14.00">start=&#39;#inherit&#39;</text>
</g>
<!-- u5clean&#45;&gt;r0supersetfsa5 -->
<g id="edge9" class="edge"><title>u5clean&#45;&gt;r0supersetfsa5</title>
<path fill="none" stroke="black" d="M409,-1328.84C409,-1317.03 409,-1300.91 409,-1286.33"/>
<polygon fill="black" stroke="black" points="412.5,-1286.06 409,-1276.06 405.5,-1286.06 412.5,-1286.06"/>
</g>
<!-- so0 -->
<g id="node6" class="node"><title>so0</title>
<polygon fill="none" stroke="black" points="320.25,-1608 211.75,-1608 211.75,-1572 320.25,-1572 320.25,-1608"/>
<text text-anchor="middle" x="266" y="-1586.3" font-family="Times,serif" font-size="14.00">a.S.O0.ixml.xml</text>
</g>
<!-- gph -->
<g id="node30" class="node"><title>gph</title>
<ellipse fill="none" stroke="black" cx="206" cy="-1249" rx="105.411" ry="18"/>
<text text-anchor="middle" x="206" y="-1245.3" font-family="Times,serif" font-size="14.00">grammar&#45;pipeline&#45;handler</text>
</g>
<!-- so0&#45;&gt;gph -->
<g id="edge18" class="edge"><title>so0&#45;&gt;gph</title>
<path fill="none" stroke="black" d="M268.754,-1571.78C275.464,-1524.86 289.177,-1391.78 247,-1294 243.93,-1286.88 239.191,-1280.19 234.011,-1274.28"/>
<polygon fill="black" stroke="black" points="236.231,-1271.54 226.787,-1266.73 231.174,-1276.38 236.231,-1271.54"/>
</g>
<!-- makepipe -->
<g id="node47" class="node"><title>makepipe</title>
<ellipse fill="#ffeeee" stroke="red" stroke-dasharray="5,2" cx="169" cy="-1452" rx="68.3838" ry="26.7407"/>
<text text-anchor="middle" x="169" y="-1455.8" font-family="Times,serif" font-size="14.00">Make pipeline</text>
<text text-anchor="middle" x="169" y="-1440.8" font-family="Times,serif" font-size="14.00">for a.S.o0</text>
</g>
<!-- so0&#45;&gt;makepipe -->
<g id="edge15" class="edge"><title>so0&#45;&gt;makepipe</title>
<path fill="none" stroke="red" stroke-dasharray="5,2" d="M253.715,-1571.78C238.535,-1550.49 212.357,-1513.79 193.109,-1486.8"/>
<polygon fill="red" stroke="red" points="195.782,-1484.52 187.126,-1478.41 190.083,-1488.59 195.782,-1484.52"/>
</g>
<!-- so0simpip -->
<g id="node7" class="node"><title>so0simpip</title>
<polygon fill="none" stroke="black" points="236.25,-1366 101.75,-1366 101.75,-1328 236.25,-1328 236.25,-1366"/>
<text text-anchor="middle" x="169" y="-1350.8" font-family="Times,serif" font-size="14.00">a.S.O0.simplification</text>
<text text-anchor="middle" x="169" y="-1335.8" font-family="Times,serif" font-size="14.00">.pipeline.xml</text>
</g>
<!-- so0simpip&#45;&gt;gph -->
<g id="edge17" class="edge"><title>so0simpip&#45;&gt;gph</title>
<path fill="none" stroke="black" d="M175.959,-1327.94C181.541,-1313.46 189.458,-1292.92 195.762,-1276.56"/>
<polygon fill="black" stroke="black" points="199.114,-1277.6 199.444,-1267.01 192.582,-1275.08 199.114,-1277.6"/>
<text text-anchor="middle" x="216" y="-1298.3" font-family="Times,serif" font-size="14.00">stepsfile=</text>
</g>
<!-- so0sim -->
<g id="node8" class="node"><title>so0sim</title>
<polygon fill="none" stroke="black" points="277.25,-1184 108.75,-1184 108.75,-1148 277.25,-1148 277.25,-1184"/>
<text text-anchor="middle" x="193" y="-1162.3" font-family="Times,serif" font-size="14.00">a.S.O0.simplified.ixml.xml</text>
</g>
<!-- so0sim&#45;&gt;handknit -->
<g id="edge21" class="edge"><title>so0sim&#45;&gt;handknit</title>
<path fill="none" stroke="red" stroke-dasharray="5,2" d="M183.67,-1147.7C176.274,-1133.98 165.705,-1114.38 156.596,-1097.49"/>
<polygon fill="red" stroke="red" points="159.543,-1095.58 151.716,-1088.44 153.381,-1098.9 159.543,-1095.58"/>
</g>
<!-- ao2 -->
<g id="node9" class="node"><title>ao2</title>
<polygon fill="none" stroke="black" points="187,-976 89,-976 89,-940 187,-940 187,-976"/>
<text text-anchor="middle" x="138" y="-954.3" font-family="Times,serif" font-size="14.00">a.O2.ixml.xml</text>
</g>
<!-- r0supersetfsa2 -->
<g id="node31" class="node"><title>r0supersetfsa2</title>
<ellipse fill="none" stroke="black" cx="138" cy="-854" rx="68.3838" ry="26.7407"/>
<text text-anchor="middle" x="138" y="-857.8" font-family="Times,serif" font-size="14.00">R0&#45;superset</text>
<text text-anchor="middle" x="138" y="-842.8" font-family="Times,serif" font-size="14.00">start=&#39;#inherit&#39;</text>
</g>
<!-- ao2&#45;&gt;r0supersetfsa2 -->
<g id="edge23" class="edge"><title>ao2&#45;&gt;r0supersetfsa2</title>
<path fill="none" stroke="black" d="M138,-939.697C138,-926.549 138,-907.992 138,-891.598"/>
<polygon fill="black" stroke="black" points="141.5,-891.216 138,-881.216 134.5,-891.216 141.5,-891.216"/>
</g>
<!-- au5fsa -->
<g id="node10" class="node"><title>au5fsa</title>
<polygon fill="none" stroke="black" points="451.25,-1184 366.75,-1184 366.75,-1148 451.25,-1148 451.25,-1184"/>
<text text-anchor="middle" x="409" y="-1162.3" font-family="Times,serif" font-size="14.00">a.u5.fsa.xml</text>
</g>
<!-- mklego5 -->
<g id="node34" class="node"><title>mklego5</title>
<ellipse fill="none" stroke="black" cx="409" cy="-1062" rx="114.888" ry="48.1667"/>
<text text-anchor="middle" x="409" y="-1080.8" font-family="Times,serif" font-size="14.00">grammar&#45;pipeline&#45;handler</text>
<text text-anchor="middle" x="409" y="-1065.8" font-family="Times,serif" font-size="14.00">stepsfile=</text>
<text text-anchor="middle" x="409" y="-1050.8" font-family="Times,serif" font-size="14.00">a.regular&#45;approx&#45;to&#45;dfsa</text>
<text text-anchor="middle" x="409" y="-1035.8" font-family="Times,serif" font-size="14.00">.pipeline.xml</text>
</g>
<!-- au5fsa&#45;&gt;mklego5 -->
<g id="edge11" class="edge"><title>au5fsa&#45;&gt;mklego5</title>
<path fill="none" stroke="black" d="M409,-1147.7C409,-1139.94 409,-1130.3 409,-1120.33"/>
<polygon fill="black" stroke="black" points="412.5,-1120.31 409,-1110.31 405.5,-1120.31 412.5,-1120.31"/>
</g>
<!-- ao2fsa -->
<g id="node11" class="node"><title>ao2fsa</title>
<polygon fill="none" stroke="black" points="182,-747 94,-747 94,-711 182,-711 182,-747"/>
<text text-anchor="middle" x="138" y="-725.3" font-family="Times,serif" font-size="14.00">a.O2.fsa.xml</text>
</g>
<!-- mklego2 -->
<g id="node33" class="node"><title>mklego2</title>
<ellipse fill="none" stroke="black" cx="138" cy="-604" rx="114.888" ry="48.1667"/>
<text text-anchor="middle" x="138" y="-622.8" font-family="Times,serif" font-size="14.00">grammar&#45;pipeline&#45;handler</text>
<text text-anchor="middle" x="138" y="-607.8" font-family="Times,serif" font-size="14.00">stepsfile=</text>
<text text-anchor="middle" x="138" y="-592.8" font-family="Times,serif" font-size="14.00">a.regular&#45;approx&#45;to&#45;dfsa</text>
<text text-anchor="middle" x="138" y="-577.8" font-family="Times,serif" font-size="14.00">.pipeline.xml</text>
</g>
<!-- ao2fsa&#45;&gt;mklego2 -->
<g id="edge25" class="edge"><title>ao2fsa&#45;&gt;mklego2</title>
<path fill="none" stroke="black" d="M138,-710.897C138,-698.206 138,-680.113 138,-662.465"/>
<polygon fill="black" stroke="black" points="141.5,-662.17 138,-652.17 134.5,-662.17 141.5,-662.17"/>
</g>
<!-- au5lego -->
<g id="node12" class="node"><title>au5lego</title>
<polygon fill="none" stroke="black" points="460.25,-976 357.75,-976 357.75,-940 460.25,-940 460.25,-976"/>
<text text-anchor="middle" x="409" y="-954.3" font-family="Times,serif" font-size="14.00">a.u5.tclego.xml</text>
</g>
<!-- mkrecipepos -->
<g id="node35" class="node"><title>mkrecipepos</title>
<ellipse fill="none" stroke="black" cx="409" cy="-854" rx="138.389" ry="48.1667"/>
<text text-anchor="middle" x="409" y="-872.8" font-family="Times,serif" font-size="14.00">tclego&#45;to&#45;tcrecipes</text>
<text text-anchor="middle" x="409" y="-857.8" font-family="Times,serif" font-size="14.00">coverage=</text>
<text text-anchor="middle" x="409" y="-842.8" font-family="Times,serif" font-size="14.00">{state, arc, state&#45;final, arc&#45;final}</text>
<text text-anchor="middle" x="409" y="-827.8" font-family="Times,serif" font-size="14.00">polarity=positive</text>
</g>
<!-- au5lego&#45;&gt;mkrecipepos -->
<g id="edge27" class="edge"><title>au5lego&#45;&gt;mkrecipepos</title>
<path fill="none" stroke="black" d="M409,-939.697C409,-931.939 409,-922.297 409,-912.328"/>
<polygon fill="black" stroke="black" points="412.5,-912.307 409,-902.307 405.5,-912.307 412.5,-912.307"/>
</g>
<!-- ao2lego -->
<g id="node13" class="node"><title>ao2lego</title>
<polygon fill="none" stroke="black" points="191,-497 85,-497 85,-461 191,-461 191,-497"/>
<text text-anchor="middle" x="138" y="-475.3" font-family="Times,serif" font-size="14.00">a.O2.tclego.xml</text>
</g>
<!-- mkrecipeneg -->
<g id="node36" class="node"><title>mkrecipeneg</title>
<ellipse fill="none" stroke="black" cx="138" cy="-354" rx="138.389" ry="48.1667"/>
<text text-anchor="middle" x="138" y="-372.8" font-family="Times,serif" font-size="14.00">tclego&#45;to&#45;tcrecipes</text>
<text text-anchor="middle" x="138" y="-357.8" font-family="Times,serif" font-size="14.00">coverage=</text>
<text text-anchor="middle" x="138" y="-342.8" font-family="Times,serif" font-size="14.00">{state, arc, state&#45;final, arc&#45;final}</text>
<text text-anchor="middle" x="138" y="-327.8" font-family="Times,serif" font-size="14.00">polarity=negative</text>
</g>
<!-- ao2lego&#45;&gt;mkrecipeneg -->
<g id="edge31" class="edge"><title>ao2lego&#45;&gt;mkrecipeneg</title>
<path fill="none" stroke="black" d="M138,-460.897C138,-448.206 138,-430.113 138,-412.465"/>
<polygon fill="black" stroke="black" points="141.5,-412.17 138,-402.17 134.5,-412.17 141.5,-412.17"/>
</g>
<!-- au5recpos -->
<g id="node14" class="node"><title>au5recpos</title>
<polygon fill="none" stroke="black" points="507,-755.5 311,-755.5 311,-702.5 507,-702.5 507,-755.5"/>
<polygon fill="none" stroke="black" points="511,-759.5 307,-759.5 307,-698.5 511,-698.5 511,-759.5"/>
<polygon fill="none" stroke="black" points="515,-763.5 303,-763.5 303,-694.5 515,-694.5 515,-763.5"/>
<polygon fill="none" stroke="black" points="519,-767.5 299,-767.5 299,-690.5 519,-690.5 519,-767.5"/>
<text text-anchor="middle" x="409" y="-740.3" font-family="Times,serif" font-size="14.00">a.u5.tcrecipes.</text>
<text text-anchor="middle" x="409" y="-725.3" font-family="Times,serif" font-size="14.00">{state, arc, state&#45;final, arc&#45;final}</text>
<text text-anchor="middle" x="409" y="-710.3" font-family="Times,serif" font-size="14.00">.pos.xml</text>
</g>
<!-- recipetcpos -->
<g id="node37" class="node"><title>recipetcpos</title>
<ellipse fill="none" stroke="black" cx="409" cy="-604" rx="87.613" ry="18"/>
<text text-anchor="middle" x="409" y="-600.3" font-family="Times,serif" font-size="14.00">tcrecipes&#45;to&#45;testcases</text>
</g>
<!-- au5recpos&#45;&gt;recipetcpos -->
<g id="edge29" class="edge"><title>au5recpos&#45;&gt;recipetcpos</title>
<path fill="none" stroke="black" d="M409,-690.428C409,-671.766 409,-649.623 409,-632.557"/>
<polygon fill="black" stroke="black" points="412.5,-632.163 409,-622.163 405.5,-632.163 412.5,-632.163"/>
</g>
<!-- ao2recneg -->
<g id="node15" class="node"><title>ao2recneg</title>
<polygon fill="none" stroke="black" points="236,-255.5 40,-255.5 40,-202.5 236,-202.5 236,-255.5"/>
<polygon fill="none" stroke="black" points="240,-259.5 36,-259.5 36,-198.5 240,-198.5 240,-259.5"/>
<polygon fill="none" stroke="black" points="244,-263.5 32,-263.5 32,-194.5 244,-194.5 244,-263.5"/>
<polygon fill="none" stroke="black" points="248,-267.5 28,-267.5 28,-190.5 248,-190.5 248,-267.5"/>
<text text-anchor="middle" x="138" y="-240.3" font-family="Times,serif" font-size="14.00">a.O2.tcrecipes.</text>
<text text-anchor="middle" x="138" y="-225.3" font-family="Times,serif" font-size="14.00">{state, arc, state&#45;final, arc&#45;final}</text>
<text text-anchor="middle" x="138" y="-210.3" font-family="Times,serif" font-size="14.00">.neg.xml</text>
</g>
<!-- recipetcneg -->
<g id="node38" class="node"><title>recipetcneg</title>
<ellipse fill="none" stroke="black" cx="138" cy="-134" rx="87.613" ry="18"/>
<text text-anchor="middle" x="138" y="-130.3" font-family="Times,serif" font-size="14.00">tcrecipes&#45;to&#45;testcases</text>
</g>
<!-- ao2recneg&#45;&gt;recipetcneg -->
<g id="edge33" class="edge"><title>ao2recneg&#45;&gt;recipetcneg</title>
<path fill="none" stroke="black" d="M138,-190.441C138,-180.98 138,-171.005 138,-162.164"/>
<polygon fill="black" stroke="black" points="141.5,-162.054 138,-152.054 134.5,-162.054 141.5,-162.054"/>
</g>
<!-- au5tcpos -->
<g id="node16" class="node"><title>au5tcpos</title>
<polygon fill="none" stroke="black" points="507,-505.5 311,-505.5 311,-452.5 507,-452.5 507,-505.5"/>
<polygon fill="none" stroke="black" points="511,-509.5 307,-509.5 307,-448.5 511,-448.5 511,-509.5"/>
<polygon fill="none" stroke="black" points="515,-513.5 303,-513.5 303,-444.5 515,-444.5 515,-513.5"/>
<polygon fill="none" stroke="black" points="519,-517.5 299,-517.5 299,-440.5 519,-440.5 519,-517.5"/>
<text text-anchor="middle" x="409" y="-490.3" font-family="Times,serif" font-size="14.00">a.u5.testcases.</text>
<text text-anchor="middle" x="409" y="-475.3" font-family="Times,serif" font-size="14.00">{state, arc, state&#45;final, arc&#45;final}</text>
<text text-anchor="middle" x="409" y="-460.3" font-family="Times,serif" font-size="14.00">.pos.xml</text>
</g>
<!-- ao2tcneg -->
<g id="node17" class="node"><title>ao2tcneg</title>
<polygon fill="none" stroke="black" points="236,-65.5 40,-65.5 40,-12.5 236,-12.5 236,-65.5"/>
<polygon fill="none" stroke="black" points="240,-69.5 36,-69.5 36,-8.5 240,-8.5 240,-69.5"/>
<polygon fill="none" stroke="black" points="244,-73.5 32,-73.5 32,-4.5 244,-4.5 244,-73.5"/>
<polygon fill="none" stroke="black" points="248,-77.5 28,-77.5 28,-0.5 248,-0.5 248,-77.5"/>
<text text-anchor="middle" x="138" y="-50.3" font-family="Times,serif" font-size="14.00">a.O2.testcases.</text>
<text text-anchor="middle" x="138" y="-35.3" font-family="Times,serif" font-size="14.00">{state, arc, state&#45;final, arc&#45;final}</text>
<text text-anchor="middle" x="138" y="-20.3" font-family="Times,serif" font-size="14.00">.neg.xml</text>
</g>
<!-- unroll3 -->
<g id="node18" class="node"><title>unroll3</title>
<polygon fill="none" stroke="black" points="628,-1608 536,-1608 536,-1572 628,-1572 628,-1608"/>
<text text-anchor="middle" x="582" y="-1586.3" font-family="Times,serif" font-size="14.00">a.unroll3.xml</text>
</g>
<!-- mkdnf -->
<g id="node40" class="node"><title>mkdnf</title>
<ellipse fill="none" stroke="black" cx="610" cy="-1452" rx="67.3907" ry="18"/>
<text text-anchor="middle" x="610" y="-1448.3" font-family="Times,serif" font-size="14.00">dnf&#45;from&#45;andor</text>
</g>
<!-- unroll3&#45;&gt;mkdnf -->
<g id="edge37" class="edge"><title>unroll3&#45;&gt;mkdnf</title>
<path fill="none" stroke="black" d="M585.546,-1571.78C590.301,-1548.68 598.793,-1507.43 604.412,-1480.14"/>
<polygon fill="black" stroke="black" points="607.894,-1480.59 606.483,-1470.08 601.038,-1479.17 607.894,-1480.59"/>
</g>
<!-- dnf3 -->
<g id="node19" class="node"><title>dnf3</title>
<polygon fill="none" stroke="black" points="648.25,-1365 571.75,-1365 571.75,-1329 648.25,-1329 648.25,-1365"/>
<text text-anchor="middle" x="610" y="-1343.3" font-family="Times,serif" font-size="14.00">a.dnf3.xml</text>
</g>
<!-- mkptm -->
<g id="node41" class="node"><title>mkptm</title>
<ellipse fill="none" stroke="black" cx="610" cy="-1249" rx="83.2892" ry="18"/>
<text text-anchor="middle" x="610" y="-1245.3" font-family="Times,serif" font-size="14.00">parsetrees&#45;from&#45;dnf</text>
</g>
<!-- dnf3&#45;&gt;mkptm -->
<g id="edge39" class="edge"><title>dnf3&#45;&gt;mkptm</title>
<path fill="none" stroke="black" d="M610,-1328.84C610,-1314.5 610,-1293.81 610,-1277.22"/>
<polygon fill="black" stroke="black" points="613.5,-1277.01 610,-1267.01 606.5,-1277.01 613.5,-1277.01"/>
</g>
<!-- trees3partial -->
<g id="node20" class="node"><title>trees3partial</title>
<polygon fill="none" stroke="black" points="670,-1184 550,-1184 550,-1148 670,-1148 670,-1184"/>
<text text-anchor="middle" x="610" y="-1162.3" font-family="Times,serif" font-size="14.00">a.ptm3.partial.xml</text>
</g>
<!-- mkln -->
<g id="node42" class="node"><title>mkln</title>
<ellipse fill="none" stroke="black" cx="701" cy="-1062" rx="77.4897" ry="18"/>
<text text-anchor="middle" x="701" y="-1058.3" font-family="Times,serif" font-size="14.00">ln&#45;from&#45;parsetrees</text>
</g>
<!-- trees3partial&#45;&gt;mkln -->
<g id="edge41" class="edge"><title>trees3partial&#45;&gt;mkln</title>
<path fill="none" stroke="black" d="M625.437,-1147.7C640.256,-1131.09 662.777,-1105.84 679.38,-1087.23"/>
<polygon fill="black" stroke="black" points="682.047,-1089.5 686.093,-1079.71 676.824,-1084.84 682.047,-1089.5"/>
</g>
<!-- fixptm -->
<g id="node43" class="node"><title>fixptm</title>
<ellipse fill="none" stroke="black" cx="649" cy="-854" rx="76.5394" ry="18"/>
<text text-anchor="middle" x="649" y="-850.3" font-family="Times,serif" font-size="14.00">parsetree&#45;pointing</text>
</g>
<!-- trees3partial&#45;&gt;fixptm -->
<g id="edge44" class="edge"><title>trees3partial&#45;&gt;fixptm</title>
<path fill="none" stroke="black" d="M609.779,-1147.75C609.572,-1119.67 609.783,-1062.33 614,-1014 616.89,-980.876 618.024,-972.51 625,-940 629.236,-920.259 635.464,-898.339 640.514,-881.703"/>
<polygon fill="black" stroke="black" points="643.874,-882.682 643.477,-872.095 637.185,-880.619 643.874,-882.682"/>
</g>
<!-- ln3 -->
<g id="node21" class="node"><title>ln3</title>
<polygon fill="none" stroke="black" points="703.25,-976 634.75,-976 634.75,-940 703.25,-940 703.25,-976"/>
<text text-anchor="middle" x="669" y="-954.3" font-family="Times,serif" font-size="14.00">a.ln3.xml</text>
</g>
<!-- ln3&#45;&gt;fixptm -->
<g id="edge43" class="edge"><title>ln3&#45;&gt;fixptm</title>
<path fill="none" stroke="black" d="M665.607,-939.697C662.514,-923.923 657.895,-900.364 654.313,-882.094"/>
<polygon fill="black" stroke="black" points="657.701,-881.187 652.343,-872.047 650.832,-882.534 657.701,-881.187"/>
</g>
<!-- trees3comp -->
<g id="node22" class="node"><title>trees3comp</title>
<polygon fill="none" stroke="black" points="716.25,-747 581.75,-747 581.75,-711 716.25,-711 716.25,-747"/>
<text text-anchor="middle" x="649" y="-725.3" font-family="Times,serif" font-size="14.00">a.ptm3.complete.xml</text>
</g>
<!-- normterm -->
<g id="node44" class="node"><title>normterm</title>
<ellipse fill="none" stroke="black" cx="649" cy="-604" rx="83.2649" ry="18"/>
<text text-anchor="middle" x="649" y="-600.3" font-family="Times,serif" font-size="14.00">normalize&#45;terminals</text>
</g>
<!-- trees3comp&#45;&gt;normterm -->
<g id="edge46" class="edge"><title>trees3comp&#45;&gt;normterm</title>
<path fill="none" stroke="black" d="M649,-710.897C649,-690.633 649,-656.6 649,-632.593"/>
<polygon fill="black" stroke="black" points="652.5,-632.354 649,-622.354 645.5,-632.354 652.5,-632.354"/>
</g>
<!-- trees3ranged -->
<g id="node23" class="node"><title>trees3ranged</title>
<polygon fill="none" stroke="black" points="710,-497 588,-497 588,-461 710,-461 710,-497"/>
<text text-anchor="middle" x="649" y="-475.3" font-family="Times,serif" font-size="14.00">a.ptm3.ranged.xml</text>
</g>
<!-- mkcat -->
<g id="node45" class="node"><title>mkcat</title>
<ellipse fill="none" stroke="black" cx="649" cy="-354" rx="102.536" ry="18"/>
<text text-anchor="middle" x="649" y="-350.3" font-family="Times,serif" font-size="14.00">testcases&#45;from&#45;parsetrees</text>
</g>
<!-- trees3ranged&#45;&gt;mkcat -->
<g id="edge48" class="edge"><title>trees3ranged&#45;&gt;mkcat</title>
<path fill="none" stroke="black" d="M649,-460.897C649,-440.633 649,-406.6 649,-382.593"/>
<polygon fill="black" stroke="black" points="652.5,-382.354 649,-372.354 645.5,-382.354 652.5,-382.354"/>
</g>
<!-- testcat -->
<g id="node24" class="node"><title>testcat</title>
<polygon fill="none" stroke="black" points="698,-247 600,-247 600,-211 698,-211 698,-247"/>
<text text-anchor="middle" x="649" y="-225.3" font-family="Times,serif" font-size="14.00">a.testcat.3.xml</text>
</g>
<!-- parseixml&#45;&gt;axml -->
<g id="edge2" class="edge"><title>parseixml&#45;&gt;axml</title>
<path fill="none" stroke="black" d="M335,-1811.94C335,-1803.81 335,-1793.88 335,-1784.7"/>
<polygon fill="black" stroke="black" points="338.5,-1784.44 335,-1774.44 331.5,-1784.44 338.5,-1784.44"/>
</g>
<!-- rksubset2&#45;&gt;u2 -->
<g id="edge4" class="edge"><title>rksubset2&#45;&gt;u2</title>
<path fill="none" stroke="black" d="M120.214,-1654.9C116.498,-1632.1 109.878,-1591.48 105.463,-1564.39"/>
<polygon fill="black" stroke="black" points="108.896,-1563.69 103.833,-1554.39 101.987,-1564.82 108.896,-1563.69"/>
</g>
<!-- rksubset5&#45;&gt;u5 -->
<g id="edge6" class="edge"><title>rksubset5&#45;&gt;u5</title>
<path fill="none" stroke="black" d="M404.212,-1654.82C404.343,-1644.19 404.515,-1630.31 404.664,-1618.2"/>
<polygon fill="black" stroke="black" points="408.164,-1618.2 404.788,-1608.15 401.165,-1618.11 408.164,-1618.2"/>
</g>
<!-- r0supersetS&#45;&gt;so0 -->
<g id="edge14" class="edge"><title>r0supersetS&#45;&gt;so0</title>
<path fill="none" stroke="black" d="M266.678,-1645.93C266.569,-1637.11 266.448,-1627.25 266.338,-1618.35"/>
<polygon fill="black" stroke="black" points="269.834,-1618.04 266.211,-1608.09 262.835,-1618.13 269.834,-1618.04"/>
</g>
<!-- rksimplifier&#45;&gt;u5clean -->
<g id="edge8" class="edge"><title>rksimplifier&#45;&gt;u5clean</title>
<path fill="none" stroke="black" d="M409,-1403.72C409,-1394.05 409,-1384.18 409,-1375.49"/>
<polygon fill="black" stroke="black" points="412.5,-1375.21 409,-1365.21 405.5,-1375.21 412.5,-1375.21"/>
</g>
<!-- gph&#45;&gt;so0sim -->
<g id="edge19" class="edge"><title>gph&#45;&gt;so0sim</title>
<path fill="none" stroke="black" d="M203.243,-1230.82C201.537,-1220.19 199.308,-1206.31 197.366,-1194.2"/>
<polygon fill="black" stroke="black" points="200.794,-1193.47 195.753,-1184.15 193.882,-1194.58 200.794,-1193.47"/>
</g>
<!-- r0supersetfsa2&#45;&gt;ao2fsa -->
<g id="edge24" class="edge"><title>r0supersetfsa2&#45;&gt;ao2fsa</title>
<path fill="none" stroke="black" d="M138,-826.915C138,-806.498 138,-778.18 138,-757.427"/>
<polygon fill="black" stroke="black" points="141.5,-757.346 138,-747.346 134.5,-757.346 141.5,-757.346"/>
</g>
<!-- r0supersetfsa5&#45;&gt;au5fsa -->
<g id="edge10" class="edge"><title>r0supersetfsa5&#45;&gt;au5fsa</title>
<path fill="none" stroke="black" d="M409,-1221.93C409,-1213.11 409,-1203.25 409,-1194.35"/>
<polygon fill="black" stroke="black" points="412.5,-1194.09 409,-1184.09 405.5,-1194.09 412.5,-1194.09"/>
</g>
<!-- mklego2&#45;&gt;ao2lego -->
<g id="edge26" class="edge"><title>mklego2&#45;&gt;ao2lego</title>
<path fill="none" stroke="black" d="M138,-555.797C138,-539.385 138,-521.535 138,-507.282"/>
<polygon fill="black" stroke="black" points="141.5,-507.167 138,-497.167 134.5,-507.167 141.5,-507.167"/>
</g>
<!-- mklego5&#45;&gt;au5lego -->
<g id="edge12" class="edge"><title>mklego5&#45;&gt;au5lego</title>
<path fill="none" stroke="black" d="M409,-1013.88C409,-1004.49 409,-994.913 409,-986.449"/>
<polygon fill="black" stroke="black" points="412.5,-986.418 409,-976.419 405.5,-986.419 412.5,-986.418"/>
</g>
<!-- mkrecipepos&#45;&gt;au5recpos -->
<g id="edge28" class="edge"><title>mkrecipepos&#45;&gt;au5recpos</title>
<path fill="none" stroke="black" d="M409,-805.797C409,-796.641 409,-787.038 409,-777.862"/>
<polygon fill="black" stroke="black" points="412.5,-777.729 409,-767.729 405.5,-777.73 412.5,-777.729"/>
</g>
<!-- mkrecipeneg&#45;&gt;ao2recneg -->
<g id="edge32" class="edge"><title>mkrecipeneg&#45;&gt;ao2recneg</title>
<path fill="none" stroke="black" d="M138,-305.797C138,-296.641 138,-287.038 138,-277.862"/>
<polygon fill="black" stroke="black" points="141.5,-277.729 138,-267.729 134.5,-277.73 141.5,-277.729"/>
</g>
<!-- recipetcpos&#45;&gt;au5tcpos -->
<g id="edge30" class="edge"><title>recipetcpos&#45;&gt;au5tcpos</title>
<path fill="none" stroke="black" d="M409,-585.897C409,-570.877 409,-548.29 409,-527.829"/>
<polygon fill="black" stroke="black" points="412.5,-527.688 409,-517.688 405.5,-527.688 412.5,-527.688"/>
</g>
<!-- recipetcneg&#45;&gt;ao2tcneg -->
<g id="edge34" class="edge"><title>recipetcneg&#45;&gt;ao2tcneg</title>
<path fill="none" stroke="black" d="M138,-115.942C138,-107.919 138,-97.9098 138,-87.8174"/>
<polygon fill="black" stroke="black" points="141.5,-87.768 138,-77.768 134.5,-87.768 141.5,-87.768"/>
</g>
<!-- unroll&#45;&gt;unroll3 -->
<g id="edge36" class="edge"><title>unroll&#45;&gt;unroll3</title>
<path fill="none" stroke="black" d="M567.817,-1654.82C570.18,-1644.19 573.265,-1630.31 575.955,-1618.2"/>
<polygon fill="black" stroke="black" points="579.435,-1618.67 578.188,-1608.15 572.602,-1617.16 579.435,-1618.67"/>
</g>
<!-- mkdnf&#45;&gt;dnf3 -->
<g id="edge38" class="edge"><title>mkdnf&#45;&gt;dnf3</title>
<path fill="none" stroke="black" d="M610,-1433.99C610,-1418.04 610,-1393.91 610,-1375.27"/>
<polygon fill="black" stroke="black" points="613.5,-1375.03 610,-1365.03 606.5,-1375.03 613.5,-1375.03"/>
</g>
<!-- mkptm&#45;&gt;trees3partial -->
<g id="edge40" class="edge"><title>mkptm&#45;&gt;trees3partial</title>
<path fill="none" stroke="black" d="M610,-1230.82C610,-1220.19 610,-1206.31 610,-1194.2"/>
<polygon fill="black" stroke="black" points="613.5,-1194.15 610,-1184.15 606.5,-1194.15 613.5,-1194.15"/>
</g>
<!-- mkln&#45;&gt;ln3 -->
<g id="edge42" class="edge"><title>mkln&#45;&gt;ln3</title>
<path fill="none" stroke="black" d="M695.572,-1043.7C690.6,-1027.85 683.163,-1004.14 677.42,-985.838"/>
<polygon fill="black" stroke="black" points="680.681,-984.541 674.348,-976.047 674.002,-986.637 680.681,-984.541"/>
</g>
<!-- fixptm&#45;&gt;trees3comp -->
<g id="edge45" class="edge"><title>fixptm&#45;&gt;trees3comp</title>
<path fill="none" stroke="black" d="M649,-835.897C649,-815.633 649,-781.6 649,-757.593"/>
<polygon fill="black" stroke="black" points="652.5,-757.354 649,-747.354 645.5,-757.354 652.5,-757.354"/>
</g>
<!-- normterm&#45;&gt;trees3ranged -->
<g id="edge47" class="edge"><title>normterm&#45;&gt;trees3ranged</title>
<path fill="none" stroke="black" d="M649,-585.897C649,-565.633 649,-531.6 649,-507.593"/>
<polygon fill="black" stroke="black" points="652.5,-507.354 649,-497.354 645.5,-507.354 652.5,-507.354"/>
</g>
<!-- mkcat&#45;&gt;testcat -->
<g id="edge49" class="edge"><title>mkcat&#45;&gt;testcat</title>
<path fill="none" stroke="black" d="M649,-335.897C649,-315.633 649,-281.6 649,-257.593"/>
<polygon fill="black" stroke="black" points="652.5,-257.354 649,-247.354 645.5,-257.354 652.5,-257.354"/>
</g>
<!-- handknit&#45;&gt;ao2 -->
<g id="edge22" class="edge"><title>handknit&#45;&gt;ao2</title>
<path fill="none" stroke="black" d="M138,-1035C138,-1020.18 138,-1001.62 138,-986.551"/>
<polygon fill="black" stroke="black" points="141.5,-986.299 138,-976.299 134.5,-986.299 141.5,-986.299"/>
</g>
<!-- makepipe&#45;&gt;so0simpip -->
<g id="edge16" class="edge"><title>makepipe&#45;&gt;so0simpip</title>
<path fill="none" stroke="red" stroke-dasharray="5,2" d="M169,-1425.01C169,-1410.24 169,-1391.72 169,-1376.55"/>
<polygon fill="red" stroke="red" points="172.5,-1376.19 169,-1366.19 165.5,-1376.19 172.5,-1376.19"/>
</g>
</g>
</svg>
